
<svg xmlns="http://www.w3.org/2000/svg" version="1.1" xmlns:xlink="http://www.w3.org/1999/xlink" preserveAspectRatio="none" x="0px" y="0px" width="550px" height="400px" viewBox="0 0 550 400">
<defs>
<g id="Symbol_1_0_Layer0_0_MEMBER_0_FILL">
<path fill="#010101" stroke="none" d="
M 244 0.55
Q 244 0.3 243.15 0.2 242.25 0.05 241.1 0.25 239.3 0.5 231.4 5.5 223.5 10.5 220.5 13.35 218.85 14.85 222.15 12.85 225.45 10.85 230 7.55 236 3.15 237.25 2.35 238.5 1.6 236 3.85 231.95 7.55 222.05 13.7 212.1 19.85 203.5 24.05 189.2 31 176.15 34.65 163.15 38.3 144.5 40.55 134.1 41.85 128.65 43.25 123.1 44.65 119.6 46.95 117.5 48.4 116.6 48.4 115.7 48.4 112.6 46.95 100.85 41.6 86.4 51.55 83.25 53.75 81.7 54.3 80.1 54.85 78.1 54.45 74.25 53.7 67.45 55.9 60.65 58.1 54.5 62.05 47.2 67 46.4 68.25 45.95 69.05 46.1 69.05 46.2 69 47.3 68.15 49.5 66.4 48.9 67.35 48.3 68.3 45.8 70.65 44.45 71.85 44.05 72.05 43.65 72.25 44.4 71.35 45.2 70.4 45.5 69.7 45.8 69.05 45.4 69.05 44.5 69.05 38.75 74.8 33 80.55 33 81.45 33 81.85 33.6 81.55 34.2 81.3 35 80.55 37 78.75 37 79.25 37 79.65 34.3 82.15 33.25 83.15 32.75 83.4 32.2 83.65 32.5 83.05 33.1 82.1 32.95 82.05 32.85 82.05 31.7 82.95 30.2 84.15 30.05 85.2 29.85 86.3 31.3 85.45 31.9 85.05 31.9 85.3 31.85 85.55 31.1 86.35 29.95 87.8 29.4 88 28.8 88.2 29.6 86.85 30.4 85.75 29.1 86.55 27.4 87.5 24.7 94 22 100.4 22 103.35 22 110.2 27.1 114.55
L 29.5 116.55 25.5 111.65 28.7 114.05
Q 31.9 116.55 31.9 117.05 32.1 117.6 26 120.35 23.45 121.45 19.75 124.1 16.1 126.7 13.3 129.35 6.6 135.55 7.5 134.05 8.1 133.1 7.95 133.05 7.85 133.05 6.7 133.95 5.3 135.05 5.05 136.2 4.85 137.3 6.2 136.45 6.75 136.15 6.8 136.25 6.9 136.35 6.6 136.95 6.3 137.4 5.8 137.6 5.25 137.75 4.9 137.45 4.5 137.2 3.7 138.35 2.85 139.5 2.1 141.25 0.9 144.05 0.55 147.6 0.25 151.25 0.3 161.05 0.45 169.65 0.75 172.95 1.05 176.55 1.7 176.55 2.8 176.55 3.7 177.45 4.1 177.85 3.95 177.9 3.85 177.95 3.3 177.65 1.3 176.55 2.2 178.15 3.05 179.7 5.7 182.05 10.05 185.9 13.95 187.15 17.8 188.45 25 188.35 28.6 188.25 31.9 187.95 35.35 187.6 36.5 187.15 38.35 186.5 38 186.45 37.7 186.4 34.5 186.85 24.5 188.3 16.85 186.7 9.15 185.1 5.4 180.85 4.4 179.85 5.1 180.15 5.8 180.4 8 181.95 13.65 185.85 20.15 186.4 26.7 187 39.5 184.65 40.3 184.5 40.65 184.55 40.95 184.6 40.5 184.75 40.05 184.9 39.85 186.55 39.65 188.15 39.8 190.35
L 40.2 195.65 31.3 202.15
Q 24.45 207.15 15.25 215.55 6 224 6 225.35 6 225.7 6.55 225.6 7.05 225.5 7.8 224.95 8.95 224.15 9 224.15 9.05 224.15 8.2 225.05 7.65 225.65 6.95 226.1 6.25 226.55 5.8 226.55 5.35 226.55 4.9 226.95 4.45 227.35 4.2 227.95 3.75 229.35 5 228.55 6.3 227.85 5.6 228.95 5.3 229.4 4.85 229.6 4.35 229.75 4 229.55 1.45 228 0.35 239.75 -0.75 251.5 1.5 256.25 2.5 258.4 2.5 258.6 2.55 258.8 1.5 257.65 0 255.7 0 257.05 0 257.55 1.3 259.2 2.55 260.8 4.4 262.65
L 8.8 266.85 41.5 266.45 55.7 261.75
Q 86.05 251.7 111.6 249.35 137.1 246.95 175.9 250.55
L 180.5 250.95 176.5 250.15
Q 170 248.7 154.2 247.8 138.3 246.9 127.2 247.35 107.65 248.2 91.8 251.15 76.05 254.1 54.7 260.95 38.85 266.1 36.8 265.95 35.85 265.95 36.8 265.5 37.75 265.05 40 264.45 46.5 262.7 57.5 259.05 92.85 247.35 129.6 246.25 166.3 245.15 206 254.55 214.8 256.6 229 261 243.05 265.3 242.6 265.75 242.3 266.25 231.3 262.75 218.85 258.65 202.7 254.8 186.65 251 182.6 251.15 181.75 251.15 185.1 252 188.65 252.85 194 253.95 218.1 258.95 232.5 264.15 235 265.05 238.75 265.75 242.4 266.4 245.4 266.55
L 252.3 266.75 255.7 259.85
Q 258.45 254.15 258.8 253 259.1 251.9 257.8 252.65 257.25 252.95 257.2 252.85 257.1 252.75 257.4 252.15 257.7 251.7 258.15 251.5 258.65 251.35 259 251.55 259.4 251.8 259.95 251.4 260.55 250.95 260.9 250.15 261.95 248.2 261.95 247.6 261.9 247 260.8 247.65 260.25 247.95 260.2 247.85 260.1 247.75 260.4 247.15 260.7 246.7 261.15 246.5 261.65 246.35 262 246.55 262.4 246.8 262.95 246.4 263.55 245.95 263.9 245.15 264.95 243.2 264.95 242.6 264.9 242 263.8 242.65 263.2 242.95 263.05 242.9 262.9 242.85 263.3 242.45 264.2 241.55 265.2 241.55 265.65 241.55 266.1 241.15 266.6 240.75 266.8 240.15 267.25 238.8 265.9 239.55 265.3 239.9 265.1 239.9 264.9 239.85 265.3 239.45 266.2 238.55 267.2 238.55 267.65 238.55 268.1 238.15 268.6 237.75 268.8 237.15 269.25 235.8 267.9 236.55 267.3 236.9 267.1 236.9 266.9 236.85 267.3 236.45 268.2 235.55 269.2 235.55 269.65 235.55 270.1 235.15 270.6 234.75 270.8 234.15 271.25 232.8 269.9 233.55 269.3 233.9 269.1 233.9 268.9 233.85 269.3 233.45 270.2 232.55 271.2 232.55 271.65 232.55 272.1 232.15 272.6 231.75 272.8 231.15 273.25 229.8 271.9 230.55 271.3 230.9 271.1 230.9 270.9 230.85 271.3 230.45 272.2 229.55 273.2 229.55 273.65 229.55 274.1 229.15 274.6 228.75 274.8 228.15 275.25 226.8 273.9 227.55 273.3 227.9 273.1 227.9 272.9 227.85 273.3 227.45 274.2 226.55 274.8 226.55 275.8 226.55 276.9 225.6 278 224.7 278 223.85 278 223.4 277.55 223.5 277.05 223.55 276.3 224.15 275.1 225 275.05 224.95 275 224.95 275.8 224.05 276.35 223.45 277.05 223 277.75 222.55 278.2 222.55 278.65 222.55 279.1 222.15 279.6 221.75 279.8 221.15 280.05 220.55 279.85 220.35 279.65 220.15 279.1 220.45 277.8 221.3 278.05 220.7 278.3 220.05 279.7 218.95 280.85 218.05 280.95 218.05 281.1 218.1 280.5 219.05 279.9 220 280.05 220.05 280.15 220.05 281.3 219.15 282.65 218.1 282.95 216.95 283.3 215.8 282 216.55 280.8 217.3 281.1 216.7 281.35 216.1 282.7 214.95 283.85 214.05 283.95 214.05 284.1 214.1 283.5 215.05 283.1 215.75 283.5 215.65 283.85 215.55 284.8 214.65 286.75 212.95 286.95 211.85 287.2 210.7 285.3 212.15 284.2 212.95 284.25 212.8 284.25 212.65 285.4 211.25 287.35 209.1 287.8 209.55 288.35 210 289.65 208.9 291 207.75 291 206.85 291 206.05 290 206.55 288.55 207.45 289.15 206.6 289.7 205.75 291.7 203.95
L 294.5 201.55 292.5 204.05
Q 291.65 205.1 292.5 204.5 293.35 203.9 295.3 202.05 297.45 200.05 298.75 198.2 300 196.4 300 195.35 300 193.1 298.6 193.65 294.75 195.15 279.1 191.4 263.4 187.65 256 183.45 249.7 180 256.3 182.55 258 183.25 258 182.15 258 181.7 257.5 181.4 257 181.05 256.3 181.05 255 180.9 262.6 178.15 269.55 175.85 274.75 173 279.85 170.2 284.4 166.25
L 288.5 162.65 285.3 166.15
Q 282.15 169.55 276.45 172.95 270.75 176.35 264.3 178.65 261.45 179.7 260.45 180.3 259.45 180.9 260.9 180.65 265.55 179.85 272.95 175.8 280.35 171.7 285 167.45 287.45 165.15 289.25 163.2 291 161.25 291 160.85 291 160.4 290.5 160.5 290 160.6 289.3 161.15 288.1 162.1 288 162.05 287.9 162 288.9 160.85 289.4 160.1 290.1 159.75 290.7 159.4 291.1 159.65 291.85 160.1 294.4 155 297 149.85 296.9 148.05 296.9 147.45 296.55 147.95 296.15 148.45 295.7 149.75 294.3 153.2 293.7 153.65 293.05 154.35 294.6 149.95 295.25 148.1 295.75 144.6 296.25 141.1 296.3 137.55 296.3 132.7 296.5 131.8 296.65 130.95 297.2 133.05 297.5 134.55 297.6 137 297.7 139.6 297.5 141.55
L 297.1 146.55 298.1 142.55
Q 299.15 138.45 298 132.55 297 127.5 295.05 123.2 293.05 118.9 292 119.55 291.65 119.75 291.15 119.6 290.7 119.4 290.4 118.95 290.1 118.35 290.2 118.25 290.25 118.15 290.8 118.45 292.15 119.3 291.95 118.2 291.7 117.05 290.3 115.95 289.5 115.2 289.25 115.2 289 115.15 289.4 115.75 290.3 117.25 289.65 116.95 289 116.65 287.4 114.85 286.25 113.4 286.25 113.3 286.2 113.15 287.3 113.95 289 115.35 289 114.15 289 113.7 287.05 111.75 285.1 109.8 282.3 107.45 277.15 103.3 266.2 97.4 255.2 91.5 254.3 92.45 254 92.75 254.5 93.15 255 93.55 256 93.75 260.25 94.85 268.8 99.7 277.3 104.5 280.7 107.65
L 285.5 112.25 280.7 108.25
Q 276.65 104.85 268.9 100.65 261.1 96.35 256.3 94.95 251.95 93.7 252.1 93.15 252.1 92.55 257.1 89.35 261.9 86.3 261.5 87.15 260.75 88.3 261.75 88 262.7 87.7 264.2 86.35 265.95 84.75 266 83.8 266 82.8 264.3 84.15 263.1 85.1 263 85.05 262.9 85 263.9 83.85 264.4 83.1 265.1 82.75 265.7 82.4 266.1 82.65 267 83.2 269 78.8 271 74.45 270.9 72.05 270.9 69.5 269.6 74.35 269.1 76.3 268.3 78.15 267.55 79.9 267.1 80.35 266.55 80.9 266.7 80.05 266.85 79.2 267.6 77.55 268.3 75.75 268.8 72.85 269.3 69.75 269.3 67.05 269.45 60.8 270.1 63.05 270.65 64.85 270.75 64.9 270.85 64.9 270.9 63.25 271.05 58.95 266.1 53.8 261.15 48.6 254.4 46.05 249.05 44.1 240 43.05 230.9 41.95 224.6 42.55
L 217.7 43.25 219.8 39.75
Q 221.7 36.8 221.9 35.85 222.15 34.9 220.8 35.65 220.2 35.95 220.05 35.9 219.9 35.85 220.3 35.45 221.2 34.55 222.3 34.55 222.7 34.55 223.15 34.15 223.6 33.75 223.8 33.15 224.25 31.75 223 32.55 221.7 33.25 222.4 32.15 222.7 31.7 223.15 31.5 223.65 31.35 224 31.55 224.4 31.8 224.95 31.4 225.55 30.95 225.9 30.15 226.95 28.2 226.95 27.6 226.9 27 225.8 27.65 225.2 27.95 225.05 27.9 224.9 27.85 225.3 27.45 226.2 26.55 227.3 26.55 227.7 26.55 228.15 26.15 228.6 25.75 228.8 25.15 229.25 23.8 227.9 24.55 227.3 24.9 227.1 24.9 226.9 24.85 227.3 24.45 228.2 23.55 229.3 23.55 229.7 23.55 230.15 23.15 230.6 22.75 230.8 22.15 231.25 20.75 230 21.55 228.7 22.25 229.4 21.15 229.7 20.7 230.15 20.5 230.65 20.35 231 20.55 231.4 20.8 231.95 20.4 232.55 19.95 232.9 19.15 233.95 17.2 233.95 16.6 233.9 16 232.8 16.65 232.2 16.95 232.05 16.9 231.9 16.85 232.3 16.45 233.2 15.55 234.3 15.55 234.7 15.55 235.15 15.15 235.6 14.75 235.8 14.15 236.25 12.8 234.9 13.55 234.3 13.9 234.1 13.9 233.9 13.85 234.3 13.45 235.2 12.55 236.3 12.55 236.7 12.55 237.15 12.15 237.6 11.75 237.8 11.15 238.25 9.75 237 10.55 235.7 11.25 236.4 10.15 236.7 9.7 237.15 9.5 237.65 9.35 238 9.55 238.4 9.8 238.95 9.4 239.55 8.95 239.9 8.15 240.95 6.2 240.95 5.6 240.9 5 239.8 5.65 239.25 5.95 239.2 5.85 239.1 5.75 239.4 5.15 239.7 4.7 240.15 4.5 240.65 4.35 241 4.55 241.6 4.95 242.8 3.35 244 1.75 244 0.55
M 263 51.95
Q 266.15 54.65 265.95 54.9 265.75 55.2 262.5 52.55 257.2 48.15 245.55 45.95 233.95 43.7 222.3 44.85 216.45 45.4 215.5 45.25 214.45 45.1 215.1 43.85 215.45 43.1 215.95 42.6 216.35 42.05 216.6 42.05 217.15 42.05 216.4 43.15 216.05 43.8 217.65 43.95 219.25 44.05 223.7 43.65 235.15 42.6 246.45 45 257.65 47.35 263 51.95
M 94.6 48.15
Q 100.05 46.05 104.1 46.05 107.2 46.05 110.9 47.3 114.6 48.5 115.4 49.85 115.65 50.25 114.7 49.95 113.8 49.7 112.3 48.95 108.95 47.25 105.15 47.15 101.4 47.05 96.3 48.55 94.3 49.15 91.5 50.5 88.75 51.85 86.9 53.05
L 82.5 56.15 86 53.05
Q 89.15 50.25 94.6 48.15
M 26.7 93.85
Q 25.25 96.55 24.7 98.05 24.1 99.55 24.1 98.25 24.05 97.2 25.5 94.15 27 91.05 27.6 91.05 27.95 91.05 26.7 93.85
M 68.1 57.65
Q 65.6 58.3 61.85 60 58.4 61.6 55.7 63.25 52.95 64.95 52.05 65.35 51.15 65.7 52.5 64.55 58.05 59.8 66.4 57.1 74.8 54.35 79.2 55.85 81.7 56.6 81.6 56.65 81.5 56.75 78.4 56.35 76.6 56.1 73.75 56.5 70.85 56.85 68.1 57.65
M 23.7 101.85
Q 24.05 104.05 23.7 105.85 23.45 106.55 23.35 105.85 23.25 105.2 23.3 103.55 23.3 101.9 23.45 101.4 23.55 100.85 23.7 101.85
M 41.7 188.35
Q 42.05 191.05 41.7 193.35 41.55 194.25 41.45 193.45 41.3 192.6 41.3 190.55 41.3 188.55 41.45 187.85 41.55 187.15 41.7 188.35
M 40.4 196.95
Q 41.55 196.45 41.45 196.6 41.35 196.8 40 197.75
L 29.2 205.75
Q 21.05 211.75 21.6 210.95 22.2 209.9 30.25 203.9 38.3 197.95 40.4 196.95
M 14 217.55
Q 19.5 212.05 19.9 212.05 20.5 212.05 15 217.55 9.5 223.05 9.1 223.05 8.5 223.05 14 217.55
M 4.9 261.65
Q 7.3 263.25 9.5 264.35 10.75 265 11.2 265.5 11.6 266 11 266.05 10.35 266.05 9 265.25 7.7 264.5 6.4 263.35 3.4 260.5 4.9 261.65 Z"/>
</g>

<g id="Symbol_1_0_Layer0_1_MEMBER_0_FILL">
<path fill="#FFFFFF" stroke="none" d="
M 244 0.55
Q 244 0.3 243.15 0.2 242.25 0.05 241.1 0.25 239.3 0.5 231.4 5.5 223.5 10.5 220.5 13.35 218.85 14.85 222.15 12.85 225.45 10.85 230 7.55 236 3.15 237.25 2.35 238.5 1.6 236 3.85 231.95 7.55 222.05 13.7 212.1 19.85 203.5 24.05 189.2 31 176.15 34.65 163.15 38.3 144.5 40.55 134.1 41.85 128.65 43.25 123.1 44.65 119.6 46.95 117.5 48.4 116.6 48.4 115.7 48.4 112.6 46.95 100.85 41.6 86.4 51.55 83.25 53.75 81.7 54.3 80.1 54.85 78.1 54.45 74.25 53.7 67.45 55.9 60.65 58.1 54.5 62.05 47.2 67 46.4 68.25 45.95 69.05 46.1 69.05 46.2 69 47.3 68.15 49.5 66.4 48.9 67.35 48.3 68.3 45.8 70.65 44.45 71.85 44.05 72.05 43.65 72.25 44.4 71.35 45.2 70.4 45.5 69.7 45.8 69.05 45.4 69.05 44.5 69.05 38.75 74.8 33 80.55 33 81.45 33 81.85 33.6 81.55 34.2 81.3 35 80.55 37 78.75 37 79.25 37 79.65 34.3 82.15 33.25 83.15 32.75 83.4 32.2 83.65 32.5 83.05 33.1 82.1 32.95 82.05 32.85 82.05 31.7 82.95 30.2 84.15 30.05 85.2 29.85 86.3 31.3 85.45 31.9 85.05 31.9 85.3 31.85 85.55 31.1 86.35 29.95 87.8 29.4 88 28.8 88.2 29.6 86.85 30.4 85.75 29.1 86.55 27.4 87.5 24.7 94 22 100.4 22 103.35 22 110.2 27.1 114.55
L 29.5 116.55 25.5 111.65 28.7 114.05
Q 31.9 116.55 31.9 117.05 32.1 117.6 26 120.35 23.45 121.45 19.75 124.1 16.1 126.7 13.3 129.35 6.6 135.55 7.5 134.05 8.1 133.1 7.95 133.05 7.85 133.05 6.7 133.95 5.3 135.05 5.05 136.2 4.85 137.3 6.2 136.45 6.75 136.15 6.8 136.25 6.9 136.35 6.6 136.95 6.3 137.4 5.8 137.6 5.25 137.75 4.9 137.45 4.5 137.2 3.7 138.35 2.85 139.5 2.1 141.25 0.9 144.05 0.55 147.6 0.25 151.25 0.3 161.05 0.45 169.65 0.75 172.95 1.05 176.55 1.7 176.55 2.8 176.55 3.7 177.45 4.1 177.85 3.95 177.9 3.85 177.95 3.3 177.65 1.3 176.55 2.2 178.15 3.05 179.7 5.7 182.05 10.05 185.9 13.95 187.15 17.8 188.45 25 188.35 28.6 188.25 31.9 187.95 35.35 187.6 36.5 187.15 38.35 186.5 38 186.45 37.7 186.4 34.5 186.85 24.5 188.3 16.85 186.7 9.15 185.1 5.4 180.85 4.4 179.85 5.1 180.15 5.8 180.4 8 181.95 13.65 185.85 20.15 186.4 26.7 187 39.5 184.65 40.3 184.5 40.65 184.55 40.95 184.6 40.5 184.75 40.05 184.9 39.85 186.55 39.65 188.15 39.8 190.35
L 40.2 195.65 31.3 202.15
Q 24.45 207.15 15.25 215.55 6 224 6 225.35 6 225.7 6.55 225.6 7.05 225.5 7.8 224.95 8.95 224.15 9 224.15 9.05 224.15 8.2 225.05 7.65 225.65 6.95 226.1 6.25 226.55 5.8 226.55 5.35 226.55 4.9 226.95 4.45 227.35 4.2 227.95 3.75 229.35 5 228.55 6.3 227.85 5.6 228.95 5.3 229.4 4.85 229.6 4.35 229.75 4 229.55 1.45 228 0.35 239.75 -0.75 251.5 1.5 256.25 2.5 258.4 2.5 258.6 2.55 258.8 1.5 257.65 0 255.7 0 257.05 0 257.55 1.3 259.2 2.55 260.8 4.4 262.65
L 8.8 266.85 41.5 266.45 55.7 261.75
Q 86.05 251.7 111.6 249.35 137.1 246.95 175.9 250.55
L 180.5 250.95 176.5 250.15
Q 170 248.7 154.2 247.8 138.3 246.9 127.2 247.35 107.65 248.2 91.8 251.15 76.05 254.1 54.7 260.95 38.85 266.1 36.8 265.95 35.85 265.95 36.8 265.5 37.75 265.05 40 264.45 46.5 262.7 57.5 259.05 92.85 247.35 129.6 246.25 166.3 245.15 206 254.55 214.8 256.6 229 261 243.05 265.3 242.6 265.75 242.3 266.25 231.3 262.75 218.85 258.65 202.7 254.8 186.65 251 182.6 251.15 181.75 251.15 185.1 252 188.65 252.85 194 253.95 218.1 258.95 232.5 264.15 235 265.05 238.75 265.75 242.4 266.4 245.4 266.55
L 252.3 266.75 255.7 259.85
Q 258.45 254.15 258.8 253 259.1 251.9 257.8 252.65 257.25 252.95 257.2 252.85 257.1 252.75 257.4 252.15 257.7 251.7 258.15 251.5 258.65 251.35 259 251.55 259.4 251.8 259.95 251.4 260.55 250.95 260.9 250.15 261.95 248.2 261.95 247.6 261.9 247 260.8 247.65 260.25 247.95 260.2 247.85 260.1 247.75 260.4 247.15 260.7 246.7 261.15 246.5 261.65 246.35 262 246.55 262.4 246.8 262.95 246.4 263.55 245.95 263.9 245.15 264.95 243.2 264.95 242.6 264.9 242 263.8 242.65 263.2 242.95 263.05 242.9 262.9 242.85 263.3 242.45 264.2 241.55 265.2 241.55 265.65 241.55 266.1 241.15 266.6 240.75 266.8 240.15 267.25 238.8 265.9 239.55 265.3 239.9 265.1 239.9 264.9 239.85 265.3 239.45 266.2 238.55 267.2 238.55 267.65 238.55 268.1 238.15 268.6 237.75 268.8 237.15 269.25 235.8 267.9 236.55 267.3 236.9 267.1 236.9 266.9 236.85 267.3 236.45 268.2 235.55 269.2 235.55 269.65 235.55 270.1 235.15 270.6 234.75 270.8 234.15 271.25 232.8 269.9 233.55 269.3 233.9 269.1 233.9 268.9 233.85 269.3 233.45 270.2 232.55 271.2 232.55 271.65 232.55 272.1 232.15 272.6 231.75 272.8 231.15 273.25 229.8 271.9 230.55 271.3 230.9 271.1 230.9 270.9 230.85 271.3 230.45 272.2 229.55 273.2 229.55 273.65 229.55 274.1 229.15 274.6 228.75 274.8 228.15 275.25 226.8 273.9 227.55 273.3 227.9 273.1 227.9 272.9 227.85 273.3 227.45 274.2 226.55 274.8 226.55 275.8 226.55 276.9 225.6 278 224.7 278 223.85 278 223.4 277.55 223.5 277.05 223.55 276.3 224.15 275.1 225 275.05 224.95 275 224.95 275.8 224.05 276.35 223.45 277.05 223 277.75 222.55 278.2 222.55 278.65 222.55 279.1 222.15 279.6 221.75 279.8 221.15 280.05 220.55 279.85 220.35 279.65 220.15 279.1 220.45 277.8 221.3 278.05 220.7 278.3 220.05 279.7 218.95 280.85 218.05 280.95 218.05 281.1 218.1 280.5 219.05 279.9 220 280.05 220.05 280.15 220.05 281.3 219.15 282.65 218.1 282.95 216.95 283.3 215.8 282 216.55 280.8 217.3 281.1 216.7 281.35 216.1 282.7 214.95 283.85 214.05 283.95 214.05 284.1 214.1 283.5 215.05 283.1 215.75 283.5 215.65 283.85 215.55 284.8 214.65 286.75 212.95 286.95 211.85 287.2 210.7 285.3 212.15 284.2 212.95 284.25 212.8 284.25 212.65 285.4 211.25 287.35 209.1 287.8 209.55 288.35 210 289.65 208.9 291 207.75 291 206.85 291 206.05 290 206.55 288.55 207.45 289.15 206.6 289.7 205.75 291.7 203.95
L 294.5 201.55 292.5 204.05
Q 291.65 205.1 292.5 204.5 293.35 203.9 295.3 202.05 297.45 200.05 298.75 198.2 300 196.4 300 195.35 300 193.1 298.6 193.65 294.75 195.15 279.1 191.4 263.4 187.65 256 183.45 249.7 180 256.3 182.55 258 183.25 258 182.15 258 181.7 257.5 181.4 257 181.05 256.3 181.05 255 180.9 262.6 178.15 269.55 175.85 274.75 173 279.85 170.2 284.4 166.25
L 288.5 162.65 285.3 166.15
Q 282.15 169.55 276.45 172.95 270.75 176.35 264.3 178.65 261.45 179.7 260.45 180.3 259.45 180.9 260.9 180.65 265.55 179.85 272.95 175.8 280.35 171.7 285 167.45 287.45 165.15 289.25 163.2 291 161.25 291 160.85 291 160.4 290.5 160.5 290 160.6 289.3 161.15 288.1 162.1 288 162.05 287.9 162 288.9 160.85 289.4 160.1 290.1 159.75 290.7 159.4 291.1 159.65 291.85 160.1 294.4 155 297 149.85 296.9 148.05 296.9 147.45 296.55 147.95 296.15 148.45 295.7 149.75 294.3 153.2 293.7 153.65 293.05 154.35 294.6 149.95 295.25 148.1 295.75 144.6 296.25 141.1 296.3 137.55 296.3 132.7 296.5 131.8 296.65 130.95 297.2 133.05 297.5 134.55 297.6 137 297.7 139.6 297.5 141.55
L 297.1 146.55 298.1 142.55
Q 299.15 138.45 298 132.55 297 127.5 295.05 123.2 293.05 118.9 292 119.55 291.65 119.75 291.15 119.6 290.7 119.4 290.4 118.95 290.1 118.35 290.2 118.25 290.25 118.15 290.8 118.45 292.15 119.3 291.95 118.2 291.7 117.05 290.3 115.95 289.5 115.2 289.25 115.2 289 115.15 289.4 115.75 290.3 117.25 289.65 116.95 289 116.65 287.4 114.85 286.25 113.4 286.25 113.3 286.2 113.15 287.3 113.95 289 115.35 289 114.15 289 113.7 287.05 111.75 285.1 109.8 282.3 107.45 277.15 103.3 266.2 97.4 255.2 91.5 254.3 92.45 254 92.75 254.5 93.15 255 93.55 256 93.75 260.25 94.85 268.8 99.7 277.3 104.5 280.7 107.65
L 285.5 112.25 280.7 108.25
Q 276.65 104.85 268.9 100.65 261.1 96.35 256.3 94.95 251.95 93.7 252.1 93.15 252.1 92.55 257.1 89.35 261.9 86.3 261.5 87.15 260.75 88.3 261.75 88 262.7 87.7 264.2 86.35 265.95 84.75 266 83.8 266 82.8 264.3 84.15 263.1 85.1 263 85.05 262.9 85 263.9 83.85 264.4 83.1 265.1 82.75 265.7 82.4 266.1 82.65 267 83.2 269 78.8 271 74.45 270.9 72.05 270.9 69.5 269.6 74.35 269.1 76.3 268.3 78.15 267.55 79.9 267.1 80.35 266.55 80.9 266.7 80.05 266.85 79.2 267.6 77.55 268.3 75.75 268.8 72.85 269.3 69.75 269.3 67.05 269.45 60.8 270.1 63.05 270.65 64.85 270.75 64.9 270.85 64.9 270.9 63.25 271.05 58.95 266.1 53.8 261.15 48.6 254.4 46.05 249.05 44.1 240 43.05 230.9 41.95 224.6 42.55
L 217.7 43.25 219.8 39.75
Q 221.7 36.8 221.9 35.85 222.15 34.9 220.8 35.65 220.2 35.95 220.05 35.9 219.9 35.85 220.3 35.45 221.2 34.55 222.3 34.55 222.7 34.55 223.15 34.15 223.6 33.75 223.8 33.15 224.25 31.75 223 32.55 221.7 33.25 222.4 32.15 222.7 31.7 223.15 31.5 223.65 31.35 224 31.55 224.4 31.8 224.95 31.4 225.55 30.95 225.9 30.15 226.95 28.2 226.95 27.6 226.9 27 225.8 27.65 225.2 27.95 225.05 27.9 224.9 27.85 225.3 27.45 226.2 26.55 227.3 26.55 227.7 26.55 228.15 26.15 228.6 25.75 228.8 25.15 229.25 23.8 227.9 24.55 227.3 24.9 227.1 24.9 226.9 24.85 227.3 24.45 228.2 23.55 229.3 23.55 229.7 23.55 230.15 23.15 230.6 22.75 230.8 22.15 231.25 20.75 230 21.55 228.7 22.25 229.4 21.15 229.7 20.7 230.15 20.5 230.65 20.35 231 20.55 231.4 20.8 231.95 20.4 232.55 19.95 232.9 19.15 233.95 17.2 233.95 16.6 233.9 16 232.8 16.65 232.2 16.95 232.05 16.9 231.9 16.85 232.3 16.45 233.2 15.55 234.3 15.55 234.7 15.55 235.15 15.15 235.6 14.75 235.8 14.15 236.25 12.8 234.9 13.55 234.3 13.9 234.1 13.9 233.9 13.85 234.3 13.45 235.2 12.55 236.3 12.55 236.7 12.55 237.15 12.15 237.6 11.75 237.8 11.15 238.25 9.75 237 10.55 235.7 11.25 236.4 10.15 236.7 9.7 237.15 9.5 237.65 9.35 238 9.55 238.4 9.8 238.95 9.4 239.55 8.95 239.9 8.15 240.95 6.2 240.95 5.6 240.9 5 239.8 5.65 239.25 5.95 239.2 5.85 239.1 5.75 239.4 5.15 239.7 4.7 240.15 4.5 240.65 4.35 241 4.55 241.6 4.95 242.8 3.35 244 1.75 244 0.55
M 247.5 54.85
Q 251.9 56.85 253.95 58.6 256 60.35 257.5 63.35 261.95 72.3 253.6 81.5 245.2 90.75 230 93.65 226.95 94.25 226.55 95.15 226.1 96.05 228.9 96.05 233.05 96.05 241.65 98.55 250.25 101 256.9 104.15 271.15 110.85 278.1 119.5 285 128.2 285 139.45 285 145.2 283 149.65 281 154.1 276.5 158.45 269.8 165 260.85 168.95 251.85 172.95 237 175.95 230.9 177.25 230.1 177.65 229.25 178.1 231 179.05 233.65 180.4 235.5 182.05 240.1 186.1 253.45 192.25 266.8 198.4 274 199.75 276.35 200.1 276.8 200.55 277.2 200.95 272.9 206.65 269.6 211.15 262.45 221.9 255.4 232.45 252.5 237.25 251.2 239.4 247.85 245.6 244.4 252.05 243.6 253.75 242.7 255.6 241.5 255.9 240.3 256.2 238.2 255.15 230.8 251.4 215.3 247.3 199.85 243.2 184.5 240.85 173.85 239.35 146.5 239.6 119 239.85 113.8 241.55 112.55 241.9 107.5 242.45 102.6 243 100 243.55
L 95 244.55
Q 89.55 245.55 78 248.55 68.05 251 58.5 254.05
L 39.3 259.45
Q 36.4 260.15 30 260.4 23.6 260.7 21.5 260.25 15.8 259.05 12.25 254.95 8.7 250.9 8.7 245.55 8.7 238.8 16.2 228.9 23.65 218.95 34 212.05 36 210.7 37.4 209.55 38.45 208.5 42.5 205.55 48.5 201.05 49.25 199.3 50 197.55 50 188.05 50 183.4 49.75 179.55 49.5 175.8 49.2 175.35 48.75 174.6 47.4 174.8 46.05 174.95 42.9 176.15 34.7 179.3 26.2 178.65 17.65 178 13.3 173.85 10.75 171.55 9.25 166.35 7.8 161.2 8.3 156.55 9.6 143.95 20.7 133.2 31.8 122.45 46.6 119.45 49.65 118.85 50.8 118.05 52 117.2 52 115.65 52 114.05 51.15 113.8 50.25 113.55 46 113.85 41.7 114.15 40.4 113.75 39.05 113.3 36.6 110.85 34.3 108.55 33.8 107.2 33.3 105.9 33.5 102.75 34.25 91.35 46.3 79.8 58.3 68.3 72.8 65.05 74.9 64.55 77.2 64.4 79.4 64.2 80.5 64.45 81.9 64.8 83.7 64.15 85.45 63.45 88.7 61.25 97.05 55.7 103.5 54.6 110 53.55 113.8 57.05 115.15 58.35 115.55 58.3 116 58.3 116.8 56.95 118.6 54.15 124.9 51.8 131.25 49.35 139 48.55 144 48.05 150 47.05
L 158.9 45.55
Q 162.35 45 162.9 44.65 163.6 44.2 167.5 43.65 170.85 43.15 173.95 42.2 176.95 41.3 188 37.45 195.95 34.75 204.45 30.85 213 26.95 216.8 24.25 220.5 21.7 221.3 21.45 222.05 21.2 220.5 23.15
L 217.9 26.05
Q 217.05 26.95 209.4 37.15 199.3 50.65 198.3 53.05 197.7 54.55 198.8 54.65 199.65 54.75 202.6 53.85 206 52.7 224.5 52.55 236.95 52.55 240.55 52.9 244.05 53.25 247.5 54.85
M 263 51.95
Q 266.15 54.65 265.95 54.9 265.75 55.2 262.5 52.55 257.2 48.15 245.55 45.95 233.95 43.7 222.3 44.85 216.45 45.4 215.5 45.25 214.45 45.1 215.1 43.85 215.45 43.1 215.95 42.6 216.35 42.05 216.6 42.05 217.15 42.05 216.4 43.15 216.05 43.8 217.65 43.95 219.25 44.05 223.7 43.65 235.15 42.6 246.45 45 257.65 47.35 263 51.95
M 94.6 48.15
Q 100.05 46.05 104.1 46.05 107.2 46.05 110.9 47.3 114.6 48.5 115.4 49.85 115.65 50.25 114.7 49.95 113.8 49.7 112.3 48.95 108.95 47.25 105.15 47.15 101.4 47.05 96.3 48.55 94.3 49.15 91.5 50.5 88.75 51.85 86.9 53.05
L 82.5 56.15 86 53.05
Q 89.15 50.25 94.6 48.15
M 26.7 93.85
Q 25.25 96.55 24.7 98.05 24.1 99.55 24.1 98.25 24.05 97.2 25.5 94.15 27 91.05 27.6 91.05 27.95 91.05 26.7 93.85
M 68.1 57.65
Q 65.6 58.3 61.85 60 58.4 61.6 55.7 63.25 52.95 64.95 52.05 65.35 51.15 65.7 52.5 64.55 58.05 59.8 66.4 57.1 74.8 54.35 79.2 55.85 81.7 56.6 81.6 56.65 81.5 56.75 78.4 56.35 76.6 56.1 73.75 56.5 70.85 56.85 68.1 57.65
M 23.7 101.85
Q 24.05 104.05 23.7 105.85 23.45 106.55 23.35 105.85 23.25 105.2 23.3 103.55 23.3 101.9 23.45 101.4 23.55 100.85 23.7 101.85
M 41.7 188.35
Q 42.05 191.05 41.7 193.35 41.55 194.25 41.45 193.45 41.3 192.6 41.3 190.55 41.3 188.55 41.45 187.85 41.55 187.15 41.7 188.35
M 40.4 196.95
Q 41.55 196.45 41.45 196.6 41.35 196.8 40 197.75
L 29.2 205.75
Q 21.05 211.75 21.6 210.95 22.2 209.9 30.25 203.9 38.3 197.95 40.4 196.95
M 14 217.55
Q 19.5 212.05 19.9 212.05 20.5 212.05 15 217.55 9.5 223.05 9.1 223.05 8.5 223.05 14 217.55
M 4.9 261.65
Q 7.3 263.25 9.5 264.35 10.75 265 11.2 265.5 11.6 266 11 266.05 10.35 266.05 9 265.25 7.7 264.5 6.4 263.35 3.4 260.5 4.9 261.65 Z"/>
</g>

<g id="Symbol_1_0_Layer0_1_MEMBER_1_FILL">
<path fill="#0079B8" stroke="none" d="
M 195.35 196
Q 177.3 195.8 172 196.45 170.2 196.75 162.8 197.45 151.75 198.55 137.85 201.5 124.15 204.35 104.6 209.65 99.3 211.05 84.95 216.55 70.8 221.95 66.5 224.15 61.2 226.9 55.45 228.45 49.75 229.95 48 229.05 44.35 227.15 47.8 223.25 48.95 221.9 55.7 216.85 62.5 211.75 69.8 206.85 74 203.95 82.6 196.95 91.3 189.8 93.9 187.15 95.3 185.75 97.45 183 99.5 180.25 101.1 177.75 107.35 168.25 103.9 160.65 102.4 157.4 98.55 156.6 94.65 155.8 89.5 157.65 88.25 158.1 88.35 157.7 88.45 157.35 90.1 155.45 92.6 152.75 94.3 149.45 96 146.15 96 144.05 96 141.9 94.45 139.05 92.95 136.25 91.5 135.65 87.2 134.05 80.05 135.95 72.9 137.8 64.5 142.65 52.3 149.75 46.65 152.4 41 155.05 38 155.05 34.15 155.05 32.45 152.6 30.9 150.35 31.6 146.8 33.2 138.55 42.1 134.05 45.95 132.1 49.15 132.2 52.35 132.3 56.6 134.55 58.55 135.6 60.85 136.35 63.1 137.05 64.4 137.05 73.1 137.05 82.7 126.75 92.35 116.5 94.8 104.55 96.3 97.25 93.8 93.4 91.3 89.55 85.1 89.55
L 80.4 89.55 83.2 84.15
Q 86.5 77.85 85.8 74.25 85.05 70.65 80.2 69.55 75.35 68.5 68.2 71.25 61.6 73.85 55.05 78.9 48.45 83.95 44.4 89.55 40 95.6 40 100.45 40 106.15 44.65 108.35 49.25 110.55 55.1 107.55
L 58.1 105.95 57.5 122.55 51.5 123.25
Q 38.8 124.85 28.3 135.45 17.8 146.05 17.7 157.35 17.55 170.05 27.25 172 36.95 173.95 51.5 164.15
L 55.8 161.25 56.4 171.05
Q 56.7 174.9 56.7 179 56.75 182.9 56.5 184.45 55.8 188.05 56.2 188.05 56.55 188.05 62.5 182.45 74.8 171.05 80.5 171.05 85.8 171.05 85.5 174.45 85.15 177.8 79.3 183.75 74.05 189.15 68.4 193.5 62.7 197.85 48 207.75 41.95 211.85 34.95 217.6 27.85 223.4 25.6 226.15 23.05 229.05 21.1 232.95 18.65 237.75 20.3 243.1 22 248.45 26.4 249.85 36.9 253.3 63.5 244.05 75.3 240.1 86.3 237.55 88.3 237.15 89.8 236.65 91.4 236.1 95 235.55 97.7 235.1 100 234.55 101.2 234.25 105 233.65 108.5 233.3 112.7 232.55
L 120.2 231.55
Q 133.25 229.7 157.1 229.65 180.85 229.65 193.5 231.45 205.2 233.15 207.5 233.65 210.85 234.2 212 234.45 217.4 235.3 223.2 236.65 226.2 237.25 226.7 237.25 227.55 237.25 229.7 238.15 231.15 238.7 231.9 238.35 232.65 237.95 233.7 236.25 238.45 228.4 246.6 216.05
L 254.3 204.35
Q 255.15 203 245.05 200.8 234.9 198.55 221 197.05 213.35 196.2 195.35 196
M 56.7 98.05
Q 55.7 98.05 53.3 98.65 51 99.3 50.4 97.6 49.85 95.9 51.5 93.25 53.1 90.8 55.2 88.45 57.3 86.05 57.9 86.05 58.4 86.05 58.2 92.05 57.9 98.05 56.7 98.05
M 72.3 86.35
Q 69.5 89.85 68.7 90.05 68.4 90.05 68.25 88.5 68.05 86.9 68.2 84.85 68.45 80.95 68.9 80.2 69.4 79.5 71.8 79.25 78.05 78.65 72.3 86.35
M 74.2 115.35
Q 70.5 119.05 69.8 119.05 69.5 119.05 69.25 116.15 69 113.15 69 109.15 69 100.95 69.85 99.5 70.7 98.05 75.5 98.05 78.2 98.05 79.1 99.25 80 100.5 80 104.15 80 107.05 78.75 109.45 77.55 111.8 74.2 115.35
M 79.8 156.05
Q 77.55 159.2 74.3 161.85
L 71 164.35 70.9 158.65
Q 70.7 152.45 70.6 151.85 70.55 150.65 74.6 149.2 78.65 147.75 80.3 148.35 82 149.05 81.9 151.1 81.75 153.1 79.8 156.05
M 158.1 218.55
L 158 221.15
Q 158 222.85 157.35 223.45 156.7 224 154.3 224.45 150.8 225 148.45 225.05 146 225.05 146 224.55 146 222.8 147.7 213.55 149.4 204.35 149.8 203.95 150.35 203.4 155.7 202.65 159.4 202.2 160.35 202.5 161.35 202.8 162.3 204.65
L 163.7 207.35 164.8 204.15
Q 165.65 201.9 166.6 201.5 167.6 201.05 172 201.05
L 178.2 201.05 177.5 204.05
Q 177.05 206.6 174.2 215.25
L 171.5 223.55 166.3 223.85
Q 162.7 224.1 161.7 223.7 160.65 223.3 159.6 221.35
L 158.1 218.55
M 123.45 210.05
Q 124.9 207.85 126.2 207.55 133.4 205.95 135.3 205.75 137.3 205.55 137.6 206.35
L 140.5 215.95
Q 142.6 223 142.1 224.55 141.6 226.05 137.1 226.05 135.65 226.05 134.35 225.6 133.05 225.1 132.6 224.45 131.55 223 128.8 223.5 126 224 126 225.65 126 226.2 124.95 226.75 123.85 227.35 122.3 227.55 119.5 227.95 116.8 228.55 116.05 228.7 115.55 228.55 115 228.4 115 228.05 115 227.75 116.3 224.7 117.7 221.45 119.5 217.75 121.95 212.3 123.45 210.05
M 102.35 214.15
Q 107.25 212.05 109.4 212.05 109.65 212.05 109.1 213.55 108.45 215.15 107.4 217.15 106.4 219.2 105.75 220.9 105.15 222.5 105.3 222.65 105.65 223 110 221.55 114.45 220.05 114.6 220.35 115.1 220.85 112.85 225.05 110.6 229.2 109.7 229.45 106.9 230.2 98.95 231.95 91 233.7 91 233.55 91 233.05 93.6 225.8 96.2 218.55 96.8 217.35 97.5 216.2 102.35 214.15
M 234.2 207.45
Q 236.45 210.85 232.9 215.1 229.3 219.35 222.4 221.45 218.95 222.5 213.5 223 207.75 223.55 196.3 223.75 188.25 223.95 181.95 224 176 224 176 223.85 176 223.4 180 211.95
L 183.9 200.55 199.7 200.65
Q 229.95 200.95 234.2 207.45 Z"/>
</g>

<g id="Symbol_1_0_Layer0_1_MEMBER_2_FILL">
<path fill="#0079B8" stroke="none" d="
M 204.55 213.25
Q 206.7 212.75 207.7 211.75 209.9 209.6 207.65 208.15 205.45 206.7 199.2 206.25 193.5 205.9 192.65 206.45 191.8 207.05 190.3 212.45 189.95 213.7 191.1 213.95 192.25 214.2 197.9 213.95 202.35 213.75 204.55 213.25 Z"/>
</g>

<g id="Symbol_1_0_Layer0_1_MEMBER_3_FILL">
<path fill="#0079B8" stroke="none" d="
M 224 116.55
Q 224.75 119.75 224.55 121.35 224.3 122.85 222.8 125.95 221.3 128.85 219.6 130.35 217.95 131.8 213.5 134.15 208.3 136.8 200.8 138.7 193.25 140.6 192.2 139.55 191.1 138.5 191.55 126.85 192 115.25 193.3 110.85 195 105 195 104.65 195 104 191.1 106.05 187.25 107.95 179.35 110.05 171.4 112.15 157.1 115.05 145.05 117.45 140.05 119.4 135.15 121.25 131.8 124.75 124.85 132.1 127.8 139.65 129.15 142.95 132.25 144.6 135.6 146.35 140.1 145.65 141.85 145.35 143.7 144.7 145.7 143.95 146.8 143.25
L 149.4 141.55 145.5 141.05
Q 142.9 140.75 142.15 140.15 141.45 139.6 141.2 137.75 141.05 136.5 141.45 135.15 141.85 133.8 142.6 132.95 144.2 131.15 149.45 129.2 154.7 127.25 159.8 126.55
L 165 125.85 161 137.05
Q 156.95 148.45 156.5 149.05 156 149.85 150.2 152.05 142.6 154.9 134.35 159.25 126.05 163.6 121.1 167.35 118.45 169.35 116.8 170.25 115.1 171.2 115.4 170.55 117.05 166.05 121.05 148.4 125 130.65 125 127.55 125 124.55 123 123.25 121 121.9 117.3 122.45 108.25 123.65 101.85 128.85 99.2 131 99.3 132.45 99.45 134.05 103 134.05 106.6 134.05 107.4 137.45 108.2 140.9 107.6 154.05 107.05 169.15 106.3 178.75 105.8 186.7 106.8 188.25 107.85 189.8 112.2 187.55 119.45 183.75 123.65 181.95 128.2 179.95 134.2 177.95 143.05 174.95 144.5 175.4 145.95 175.8 141.8 180.15 134.45 188.05 119.3 196.15 111.35 200.4 109.5 201.75 107.45 203.1 108.35 202.95 109.25 202.8 114 200.95 121.3 198.15 134.5 194.55 140.45 192.9 148.5 191.45 155.95 190.2 157.3 189.25 158.55 188.3 160.2 183.05 162.9 174.05 164.4 172.8 165.9 171.55 173.9 171.55 179.6 171.55 181.55 171.85 183.45 172.15 183.6 173.05
L 187.2 188.05 196.4 188.15
Q 205.3 188.15 208.5 188.55 210.2 188.75 216.6 189.55 222.3 190.15 223.8 190.55
L 229.6 191.45
Q 234.1 192.25 235.5 192.65 239.6 193.95 232 189.95 228.85 188.25 223.8 185.05 218.85 181.9 218 181.05
L 212.8 176.75
Q 208 173 208 172.25 208 171.95 210 171.7 212 171.45 214.8 171.35 239.85 170.55 253.85 161.8 267.85 153.05 268.6 137.75 269.65 116.15 241.5 107.15 235.4 105.2 227.15 103.65 218.9 102.05 214.7 102.05 213.3 102.05 213.45 102.35 213.55 102.7 215.6 103.95 222 107.85 224 116.55
M 174.8 144.45
Q 171.35 145.35 171.15 144.25 170.95 143.2 172.9 135.05 174.4 129 174.95 129.5 175.45 130.05 176.5 138.65 176.95 142.25 176.7 143.15 176.45 144 174.8 144.45 Z"/>
</g>

<g id="Symbol_1_0_Layer0_1_MEMBER_4_FILL">
<path fill="#0079B8" stroke="none" d="
M 111.6 61.45
Q 109.55 59.95 106 60.1 102.4 60.25 97.7 62.05 90.9 64.6 88.8 68.15 86.75 71.65 91.7 72.25 93.5 72.5 94.25 73.4 95 74.35 95.8 77.55 97 82 97.3 95.5 97.55 109.05 96.6 117.85 95.85 125.2 97 125.9 98.15 126.65 104.3 122.65 106.4 121.2 109.95 119.4 113.45 117.55 116.3 116.45 119.15 115.25 121.1 114.05 123 112.85 123 112.25 123 111.25 126 101.85 129 93.2 129 92.45 129 90.95 120.85 95.85 112.65 100.7 108.3 104.75 105 107.85 105 107.45 105 107.15 107.4 101.25 110.5 93.85 111.9 87.25 113.35 80.5 113.4 72.75 113.5 66.2 113.2 64.35 112.85 62.45 111.6 61.45 Z"/>
</g>

<g id="Symbol_1_0_Layer0_1_MEMBER_5_FILL">
<path fill="#0079B8" stroke="none" d="
M 196.3 44.15
Q 197.95 41.9 198.75 40.5 199.5 39.05 198.9 39.35 190.45 42.8 186 44.25 181.2 45.8 174 47.35 163.1 49.75 148.1 52.05 142 53 136.4 54.15 130.5 55.35 128.4 56.15 124.2 57.7 120.7 61.05 117.25 64.4 116.4 67.55 115.75 70.3 116.55 73.7 117.35 77.05 119.1 78.65 121.2 80.6 125.9 80.6 130.6 80.6 133.5 78.65
L 136.4 76.75 134.2 75.25
Q 133.3 74.65 132.65 73.7 132 72.7 132 71.95 132 70.15 136.1 68.05 140.15 65.95 143 66.25
L 145.8 66.55 142.4 75.05
Q 139.1 83.15 134.55 96.2 130 109.2 130 110.55 130 111.4 130.95 111.4 131.85 111.4 135 110.55 139.7 109.4 146.9 108.05
L 153.7 106.95 156.1 96.15 161.8 95.05
Q 166.9 94.05 168.7 93.55 169.3 93.35 169.8 94.25 170.3 95.1 170.5 96.85 171.5 102.9 172 103.95 172.5 105 174.3 104.55
L 195 100.85 190.8 97.05
Q 189 95.45 187.9 94.25 186.8 92.95 187 92.75 187.5 92.45 202.5 91.15 227 89.4 238.2 83.35 247.65 78.2 248.65 70.6 249.7 63.05 241.5 59.05 236.9 56.85 228.25 56.35 219.55 55.8 210.4 57.15
L 201.5 58.45 206.5 59.15
Q 211.2 59.75 214.1 61.1 216.95 62.4 217.5 64.15 219 68.8 210.6 73.05 202.15 77.3 188.8 78.65 183.8 79.15 182.9 78.9 182 78.65 182 76.85 182 71 186.1 61.65 190.15 52.3 196.3 44.15
M 163.7 71.55
L 166.4 63.55 167.1 68.45
Q 167.8 72.9 168.2 76.85 168.45 79.45 167.9 80.1 167.4 80.7 164.7 81.15 161 81.75 161 80.65 161 79.45 163.7 71.55 Z"/>
</g>

<g id="Symbol_1_0_Layer0_2_MEMBER_0_FILL">
<path fill="#9C60FF" stroke="none" d="
M 244 0.55
Q 244 0.3 243.15 0.2 242.25 0.05 241.1 0.25 239.3 0.5 231.4 5.5 223.5 10.5 220.5 13.35 218.85 14.85 222.15 12.85 225.45 10.85 230 7.55 236 3.15 237.25 2.35 238.5 1.6 236 3.85 231.95 7.55 222.05 13.7 212.1 19.85 203.5 24.05 189.2 31 176.15 34.65 163.15 38.3 144.5 40.55 134.1 41.85 128.65 43.25 123.1 44.65 119.6 46.95 117.5 48.4 116.6 48.4 115.7 48.4 112.6 46.95 100.85 41.6 86.4 51.55 83.25 53.75 81.7 54.3 80.1 54.85 78.1 54.45 74.25 53.7 67.45 55.9 60.65 58.1 54.5 62.05 47.2 67 46.4 68.25 45.95 69.05 46.1 69.05 46.2 69 47.3 68.15 49.5 66.4 48.9 67.35 48.3 68.3 45.8 70.65 44.45 71.85 44.05 72.05 43.65 72.25 44.4 71.35 45.2 70.4 45.5 69.7 45.8 69.05 45.4 69.05 44.5 69.05 38.75 74.8 33 80.55 33 81.45 33 81.85 33.6 81.55 34.2 81.3 35 80.55 37 78.75 37 79.25 37 79.65 34.3 82.15 33.25 83.15 32.75 83.4 32.2 83.65 32.5 83.05 33.1 82.1 32.95 82.05 32.85 82.05 31.7 82.95 30.2 84.15 30.05 85.2 29.85 86.3 31.3 85.45 31.9 85.05 31.9 85.3 31.85 85.55 31.1 86.35 29.95 87.8 29.4 88 28.8 88.2 29.6 86.85 30.4 85.75 29.1 86.55 27.4 87.5 24.7 94 22 100.4 22 103.35 22 110.2 27.1 114.55
L 29.5 116.55 25.5 111.65 28.7 114.05
Q 31.9 116.55 31.9 117.05 32.1 117.6 26 120.35 23.45 121.45 19.75 124.1 16.1 126.7 13.3 129.35 6.6 135.55 7.5 134.05 8.1 133.1 7.95 133.05 7.85 133.05 6.7 133.95 5.3 135.05 5.05 136.2 4.85 137.3 6.2 136.45 6.75 136.15 6.8 136.25 6.9 136.35 6.6 136.95 6.3 137.4 5.8 137.6 5.25 137.75 4.9 137.45 4.5 137.2 3.7 138.35 2.85 139.5 2.1 141.25 0.9 144.05 0.55 147.6 0.25 151.25 0.3 161.05 0.45 169.65 0.75 172.95 1.05 176.55 1.7 176.55 2.8 176.55 3.7 177.45 4.1 177.85 3.95 177.9 3.85 177.95 3.3 177.65 1.3 176.55 2.2 178.15 3.05 179.7 5.7 182.05 10.05 185.9 13.95 187.15 17.8 188.45 25 188.35 28.6 188.25 31.9 187.95 35.35 187.6 36.5 187.15 38.35 186.5 38 186.45 37.7 186.4 34.5 186.85 24.5 188.3 16.85 186.7 9.15 185.1 5.4 180.85 4.4 179.85 5.1 180.15 5.8 180.4 8 181.95 13.65 185.85 20.15 186.4 26.7 187 39.5 184.65 40.3 184.5 40.65 184.55 40.95 184.6 40.5 184.75 40.05 184.9 39.85 186.55 39.65 188.15 39.8 190.35
L 40.2 195.65 31.3 202.15
Q 24.45 207.15 15.25 215.55 6 224 6 225.35 6 225.7 6.55 225.6 7.05 225.5 7.8 224.95 8.95 224.15 9 224.15 9.05 224.15 8.2 225.05 7.65 225.65 6.95 226.1 6.25 226.55 5.8 226.55 5.35 226.55 4.9 226.95 4.45 227.35 4.2 227.95 3.75 229.35 5 228.55 6.3 227.85 5.6 228.95 5.3 229.4 4.85 229.6 4.35 229.75 4 229.55 1.45 228 0.35 239.75 -0.75 251.5 1.5 256.25 2.5 258.4 2.5 258.6 2.55 258.8 1.5 257.65 0 255.7 0 257.05 0 257.55 1.3 259.2 2.55 260.8 4.4 262.65
L 8.8 266.85 41.5 266.45 55.7 261.75
Q 86.05 251.7 111.6 249.35 137.1 246.95 175.9 250.55
L 180.5 250.95 176.5 250.15
Q 170 248.7 154.2 247.8 138.3 246.9 127.2 247.35 107.65 248.2 91.8 251.15 76.05 254.1 54.7 260.95 38.85 266.1 36.8 265.95 35.85 265.95 36.8 265.5 37.75 265.05 40 264.45 46.5 262.7 57.5 259.05 92.85 247.35 129.6 246.25 166.3 245.15 206 254.55 214.8 256.6 229 261 243.05 265.3 242.6 265.75 242.3 266.25 231.3 262.75 218.85 258.65 202.7 254.8 186.65 251 182.6 251.15 181.75 251.15 185.1 252 188.65 252.85 194 253.95 218.1 258.95 232.5 264.15 235 265.05 238.75 265.75 242.4 266.4 245.4 266.55
L 252.3 266.75 255.7 259.85
Q 258.45 254.15 258.8 253 259.1 251.9 257.8 252.65 257.25 252.95 257.2 252.85 257.1 252.75 257.4 252.15 257.7 251.7 258.15 251.5 258.65 251.35 259 251.55 259.4 251.8 259.95 251.4 260.55 250.95 260.9 250.15 261.95 248.2 261.95 247.6 261.9 247 260.8 247.65 260.25 247.95 260.2 247.85 260.1 247.75 260.4 247.15 260.7 246.7 261.15 246.5 261.65 246.35 262 246.55 262.4 246.8 262.95 246.4 263.55 245.95 263.9 245.15 264.95 243.2 264.95 242.6 264.9 242 263.8 242.65 263.2 242.95 263.05 242.9 262.9 242.85 263.3 242.45 264.2 241.55 265.2 241.55 265.65 241.55 266.1 241.15 266.6 240.75 266.8 240.15 267.25 238.8 265.9 239.55 265.3 239.9 265.1 239.9 264.9 239.85 265.3 239.45 266.2 238.55 267.2 238.55 267.65 238.55 268.1 238.15 268.6 237.75 268.8 237.15 269.25 235.8 267.9 236.55 267.3 236.9 267.1 236.9 266.9 236.85 267.3 236.45 268.2 235.55 269.2 235.55 269.65 235.55 270.1 235.15 270.6 234.75 270.8 234.15 271.25 232.8 269.9 233.55 269.3 233.9 269.1 233.9 268.9 233.85 269.3 233.45 270.2 232.55 271.2 232.55 271.65 232.55 272.1 232.15 272.6 231.75 272.8 231.15 273.25 229.8 271.9 230.55 271.3 230.9 271.1 230.9 270.9 230.85 271.3 230.45 272.2 229.55 273.2 229.55 273.65 229.55 274.1 229.15 274.6 228.75 274.8 228.15 275.25 226.8 273.9 227.55 273.3 227.9 273.1 227.9 272.9 227.85 273.3 227.45 274.2 226.55 274.8 226.55 275.8 226.55 276.9 225.6 278 224.7 278 223.85 278 223.4 277.55 223.5 277.05 223.55 276.3 224.15 275.1 225 275.05 224.95 275 224.95 275.8 224.05 276.35 223.45 277.05 223 277.75 222.55 278.2 222.55 278.65 222.55 279.1 222.15 279.6 221.75 279.8 221.15 280.05 220.55 279.85 220.35 279.65 220.15 279.1 220.45 277.8 221.3 278.05 220.7 278.3 220.05 279.7 218.95 280.85 218.05 280.95 218.05 281.1 218.1 280.5 219.05 279.9 220 280.05 220.05 280.15 220.05 281.3 219.15 282.65 218.1 282.95 216.95 283.3 215.8 282 216.55 280.8 217.3 281.1 216.7 281.35 216.1 282.7 214.95 283.85 214.05 283.95 214.05 284.1 214.1 283.5 215.05 283.1 215.75 283.5 215.65 283.85 215.55 284.8 214.65 286.75 212.95 286.95 211.85 287.2 210.7 285.3 212.15 284.2 212.95 284.25 212.8 284.25 212.65 285.4 211.25 287.35 209.1 287.8 209.55 288.35 210 289.65 208.9 291 207.75 291 206.85 291 206.05 290 206.55 288.55 207.45 289.15 206.6 289.7 205.75 291.7 203.95
L 294.5 201.55 292.5 204.05
Q 291.65 205.1 292.5 204.5 293.35 203.9 295.3 202.05 297.45 200.05 298.75 198.2 300 196.4 300 195.35 300 193.1 298.6 193.65 294.75 195.15 279.1 191.4 263.4 187.65 256 183.45 249.7 180 256.3 182.55 258 183.25 258 182.15 258 181.7 257.5 181.4 257 181.05 256.3 181.05 255 180.9 262.6 178.15 269.55 175.85 274.75 173 279.85 170.2 284.4 166.25
L 288.5 162.65 285.3 166.15
Q 282.15 169.55 276.45 172.95 270.75 176.35 264.3 178.65 261.45 179.7 260.45 180.3 259.45 180.9 260.9 180.65 265.55 179.85 272.95 175.8 280.35 171.7 285 167.45 287.45 165.15 289.25 163.2 291 161.25 291 160.85 291 160.4 290.5 160.5 290 160.6 289.3 161.15 288.1 162.1 288 162.05 287.9 162 288.9 160.85 289.4 160.1 290.1 159.75 290.7 159.4 291.1 159.65 291.85 160.1 294.4 155 297 149.85 296.9 148.05 296.9 147.45 296.55 147.95 296.15 148.45 295.7 149.75 294.3 153.2 293.7 153.65 293.05 154.35 294.6 149.95 295.25 148.1 295.75 144.6 296.25 141.1 296.3 137.55 296.3 132.7 296.5 131.8 296.65 130.95 297.2 133.05 297.5 134.55 297.6 137 297.7 139.6 297.5 141.55
L 297.1 146.55 298.1 142.55
Q 299.15 138.45 298 132.55 297 127.5 295.05 123.2 293.05 118.9 292 119.55 291.65 119.75 291.15 119.6 290.7 119.4 290.4 118.95 290.1 118.35 290.2 118.25 290.25 118.15 290.8 118.45 292.15 119.3 291.95 118.2 291.7 117.05 290.3 115.95 289.5 115.2 289.25 115.2 289 115.15 289.4 115.75 290.3 117.25 289.65 116.95 289 116.65 287.4 114.85 286.25 113.4 286.25 113.3 286.2 113.15 287.3 113.95 289 115.35 289 114.15 289 113.7 287.05 111.75 285.1 109.8 282.3 107.45 277.15 103.3 266.2 97.4 255.2 91.5 254.3 92.45 254 92.75 254.5 93.15 255 93.55 256 93.75 260.25 94.85 268.8 99.7 277.3 104.5 280.7 107.65
L 285.5 112.25 280.7 108.25
Q 276.65 104.85 268.9 100.65 261.1 96.35 256.3 94.95 251.95 93.7 252.1 93.15 252.1 92.55 257.1 89.35 261.9 86.3 261.5 87.15 260.75 88.3 261.75 88 262.7 87.7 264.2 86.35 265.95 84.75 266 83.8 266 82.8 264.3 84.15 263.1 85.1 263 85.05 262.9 85 263.9 83.85 264.4 83.1 265.1 82.75 265.7 82.4 266.1 82.65 267 83.2 269 78.8 271 74.45 270.9 72.05 270.9 69.5 269.6 74.35 269.1 76.3 268.3 78.15 267.55 79.9 267.1 80.35 266.55 80.9 266.7 80.05 266.85 79.2 267.6 77.55 268.3 75.75 268.8 72.85 269.3 69.75 269.3 67.05 269.45 60.8 270.1 63.05 270.65 64.85 270.75 64.9 270.85 64.9 270.9 63.25 271.05 58.95 266.1 53.8 261.15 48.6 254.4 46.05 249.05 44.1 240 43.05 230.9 41.95 224.6 42.55
L 217.7 43.25 219.8 39.75
Q 221.7 36.8 221.9 35.85 222.15 34.9 220.8 35.65 220.2 35.95 220.05 35.9 219.9 35.85 220.3 35.45 221.2 34.55 222.3 34.55 222.7 34.55 223.15 34.15 223.6 33.75 223.8 33.15 224.25 31.75 223 32.55 221.7 33.25 222.4 32.15 222.7 31.7 223.15 31.5 223.65 31.35 224 31.55 224.4 31.8 224.95 31.4 225.55 30.95 225.9 30.15 226.95 28.2 226.95 27.6 226.9 27 225.8 27.65 225.2 27.95 225.05 27.9 224.9 27.85 225.3 27.45 226.2 26.55 227.3 26.55 227.7 26.55 228.15 26.15 228.6 25.75 228.8 25.15 229.25 23.8 227.9 24.55 227.3 24.9 227.1 24.9 226.9 24.85 227.3 24.45 228.2 23.55 229.3 23.55 229.7 23.55 230.15 23.15 230.6 22.75 230.8 22.15 231.25 20.75 230 21.55 228.7 22.25 229.4 21.15 229.7 20.7 230.15 20.5 230.65 20.35 231 20.55 231.4 20.8 231.95 20.4 232.55 19.95 232.9 19.15 233.95 17.2 233.95 16.6 233.9 16 232.8 16.65 232.2 16.95 232.05 16.9 231.9 16.85 232.3 16.45 233.2 15.55 234.3 15.55 234.7 15.55 235.15 15.15 235.6 14.75 235.8 14.15 236.25 12.8 234.9 13.55 234.3 13.9 234.1 13.9 233.9 13.85 234.3 13.45 235.2 12.55 236.3 12.55 236.7 12.55 237.15 12.15 237.6 11.75 237.8 11.15 238.25 9.75 237 10.55 235.7 11.25 236.4 10.15 236.7 9.7 237.15 9.5 237.65 9.35 238 9.55 238.4 9.8 238.95 9.4 239.55 8.95 239.9 8.15 240.95 6.2 240.95 5.6 240.9 5 239.8 5.65 239.25 5.95 239.2 5.85 239.1 5.75 239.4 5.15 239.7 4.7 240.15 4.5 240.65 4.35 241 4.55 241.6 4.95 242.8 3.35 244 1.75 244 0.55
M 254.3 59.45
Q 259.3 64.15 258.7 70.85 258.25 74.95 255.55 78.95 252.85 83.05 248.6 85.95 245.3 88.25 237.6 91.15 229.9 94.05 227.1 94.05 226.3 94.05 225.5 94.35 224.75 94.65 224.5 95.05 224.2 95.5 225 95.8 225.8 96.05 227.3 96.05 231.75 96.05 241.9 99 252.1 101.9 258.6 105.05 274.3 112.65 281.15 124.9 288 137.2 283 148.75 278.8 158.55 265.85 165.85 252.9 173.05 233.1 176.75
L 228.7 177.55 237.1 183.25
Q 245.95 189.05 251 191.55 255.8 193.95 264.5 197 273.2 200.05 275.3 200.05 276.6 200.05 276.7 200.35 276.8 200.7 275.9 201.95 270.75 209.05 260.8 224.4 250.85 239.7 247.4 245.85 244.05 251.85 242.5 253.85 241 255.85 240.1 255.45 234.3 252.95 221.55 249.05 208.55 245.15 201 243.65 186.35 240.7 174.15 239.8 162.2 238.9 143.6 239.35 120.85 239.95 100.6 243.4 80.15 246.85 58 253.95 47 257.35 42.4 258.45 36.05 260.1 28.2 260.05 20.4 260 17 258.25 11 255.25 9.55 249.25 8.1 243.2 11.7 235.95 14.2 230.9 22.25 222.8 30.35 214.65 40.3 207.25
L 50 199.95 50 187.05
Q 50 181.75 49.75 177.85 49.5 174.05 49.2 174.05 48.25 174.05 42.6 176.05 29.65 180.45 20.65 177.7 11.65 174.9 9 165.65 5.3 152.3 16.9 137.9 28.5 123.45 45.8 119.95 50.1 119.05 51.05 118.45 52 117.85 52 116.05 52 114.2 51.1 113.85 50.3 113.55 45.5 113.55 41.2 113.55 39.65 113.1 38.1 112.65 36.3 110.85 34.65 109.2 34.15 107.75 33.65 106.25 33.7 103.35 33.8 97.7 36.7 92.5 39.6 87.3 46.4 80.55 54.45 72.6 61.2 69.15 67.95 65.7 76.5 65.25 81.5 64.95 83.6 64.4 85.6 63.85 87.5 62.25 93.5 57.25 101.45 55.6 109.35 53.95 113.1 56.95 114.85 58.3 115.45 58.2 116.1 58.1 118.2 56.05 121.05 53.2 126.6 51.5 132.2 49.75 144.4 48.05 189.15 41.5 216.9 24.45
L 221.3 21.75 213.8 31.15
Q 207.65 38.9 202.3 46.6 196.95 54.35 197.4 54.85 197.65 55 199.35 54.8 201.1 54.55 203.2 54.05 209.1 52.7 221.7 52.35 234.2 51.95 239.5 52.95 249.25 54.75 254.3 59.45
M 263 51.95
Q 266.15 54.65 265.95 54.9 265.75 55.2 262.5 52.55 257.2 48.15 245.55 45.95 233.95 43.7 222.3 44.85 216.45 45.4 215.5 45.25 214.45 45.1 215.1 43.85 215.45 43.1 215.95 42.6 216.35 42.05 216.6 42.05 217.15 42.05 216.4 43.15 216.05 43.8 217.65 43.95 219.25 44.05 223.7 43.65 235.15 42.6 246.45 45 257.65 47.35 263 51.95
M 94.6 48.15
Q 100.05 46.05 104.1 46.05 107.2 46.05 110.9 47.3 114.6 48.5 115.4 49.85 115.65 50.25 114.7 49.95 113.8 49.7 112.3 48.95 108.95 47.25 105.15 47.15 101.4 47.05 96.3 48.55 94.3 49.15 91.5 50.5 88.75 51.85 86.9 53.05
L 82.5 56.15 86 53.05
Q 89.15 50.25 94.6 48.15
M 26.7 93.85
Q 25.25 96.55 24.7 98.05 24.1 99.55 24.1 98.25 24.05 97.2 25.5 94.15 27 91.05 27.6 91.05 27.95 91.05 26.7 93.85
M 68.1 57.65
Q 65.6 58.3 61.85 60 58.4 61.6 55.7 63.25 52.95 64.95 52.05 65.35 51.15 65.7 52.5 64.55 58.05 59.8 66.4 57.1 74.8 54.35 79.2 55.85 81.7 56.6 81.6 56.65 81.5 56.75 78.4 56.35 76.6 56.1 73.75 56.5 70.85 56.85 68.1 57.65
M 23.7 101.85
Q 24.05 104.05 23.7 105.85 23.45 106.55 23.35 105.85 23.25 105.2 23.3 103.55 23.3 101.9 23.45 101.4 23.55 100.85 23.7 101.85
M 41.7 188.35
Q 42.05 191.05 41.7 193.35 41.55 194.25 41.45 193.45 41.3 192.6 41.3 190.55 41.3 188.55 41.45 187.85 41.55 187.15 41.7 188.35
M 40.4 196.95
Q 41.55 196.45 41.45 196.6 41.35 196.8 40 197.75
L 29.2 205.75
Q 21.05 211.75 21.6 210.95 22.2 209.9 30.25 203.9 38.3 197.95 40.4 196.95
M 14 217.55
Q 19.5 212.05 19.9 212.05 20.5 212.05 15 217.55 9.5 223.05 9.1 223.05 8.5 223.05 14 217.55
M 9 265.25
Q 7.7 264.5 6.4 263.35 3.4 260.5 4.9 261.65 7.3 263.25 9.5 264.35 10.75 265 11.2 265.5 11.6 266 11 266.05 10.35 266.05 9 265.25 Z"/>
</g>

<g id="Symbol_1_0_Layer0_2_MEMBER_1_FILL">
<path fill="#0079B8" stroke="none" d="
M 93.8 93.4
Q 91.3 89.55 85.1 89.55
L 80.4 89.55 83.2 84.15
Q 86.5 77.85 85.8 74.25 85.05 70.65 80.2 69.55 75.35 68.5 68.2 71.25 61.6 73.85 55.05 78.9 48.45 83.95 44.4 89.55 40 95.6 40 100.45 40 106.15 44.65 108.35 49.25 110.55 55.1 107.55
L 58.1 105.95 57.5 122.55 51.5 123.25
Q 38.8 124.85 28.3 135.45 17.8 146.05 17.7 157.35 17.55 170.05 27.25 172 36.95 173.95 51.5 164.15
L 55.8 161.25 56.4 171.05
Q 56.7 174.9 56.7 179 56.75 182.9 56.5 184.45 55.8 188.05 56.2 188.05 56.55 188.05 62.5 182.45 70.9 174.7 76.7 172.15 82.5 169.55 84.9 172.45 87.6 175.75 79.65 183.55 71.65 191.35 50.9 205.65 34.55 217 26.8 225.1 19 233.2 19 238.95 19 241.95 21 245.3 23 248.6 25.4 249.65 30.65 251.9 39.65 250.6 48.65 249.25 66 243.55 88.7 236.25 114.5 232.35 121.65 231.3 130.3 230.95 139.05 230.55 157 230.55 181.3 230.55 192.2 231.55 203.05 232.6 221.5 236.55 232.45 238.9 232.6 238.75 234.35 235.45 239.95 226.55 245.65 217.5 249 212.65 255.1 203.7 253.9 202.95 252.85 202.35 242.6 200.15 215.05 194.45 184 195.7 152.9 196.95 120.9 205.05 106.4 208.75 93.25 213.4 79.8 218.15 60 226.65 55.1 228.75 51.05 229 46.95 229.25 46.3 227.45 45.65 225.75 49.55 222.15 53.4 218.6 64.4 210.75 81.7 198.55 90.65 190.2 99.55 181.85 103.4 174.35 104.8 171.6 104.95 167.45 105.1 163.35 103.9 160.65 102.4 157.4 98.55 156.6 94.65 155.8 89.5 157.65 88.25 158.1 88.35 157.7 88.45 157.35 90.1 155.45 92.6 152.75 94.3 149.45 96 146.15 96 144.05 96 141.9 94.45 139.05 92.95 136.25 91.5 135.65 87.2 134.05 80.05 135.95 72.9 137.8 64.5 142.65 52.3 149.75 46.65 152.4 41 155.05 38 155.05 34.15 155.05 32.45 152.6 30.9 150.35 31.6 146.8 33.2 138.55 42.1 134.05 45.95 132.1 49.15 132.2 52.35 132.3 56.6 134.55 58.55 135.6 60.85 136.35 63.1 137.05 64.4 137.05 73.1 137.05 82.7 126.75 92.35 116.5 94.8 104.55 96.3 97.25 93.8 93.4
M 56.7 98.05
Q 55.7 98.05 53.3 98.65 51 99.3 50.4 97.6 49.85 95.9 51.5 93.25 53.1 90.8 55.2 88.45 57.3 86.05 57.9 86.05 58.4 86.05 58.2 92.05 57.9 98.05 56.7 98.05
M 72.3 86.35
Q 69.5 89.85 68.7 90.05 68.4 90.05 68.25 88.5 68.05 86.9 68.2 84.85 68.45 80.95 68.9 80.2 69.4 79.5 71.8 79.25 78.05 78.65 72.3 86.35
M 74.2 115.35
Q 70.5 119.05 69.8 119.05 69.5 119.05 69.25 116.15 69 113.15 69 109.15 69 100.95 69.85 99.5 70.7 98.05 75.5 98.05 78.2 98.05 79.1 99.25 80 100.5 80 104.15 80 107.05 78.75 109.45 77.55 111.8 74.2 115.35
M 79.8 156.05
Q 77.55 159.2 74.3 161.85
L 71 164.35 70.9 158.65
Q 70.7 152.45 70.6 151.85 70.55 150.65 74.6 149.2 78.65 147.75 80.3 148.35 82 149.05 81.9 151.1 81.75 153.1 79.8 156.05 Z"/>
</g>

<g id="Symbol_1_0_Layer0_2_MEMBER_2_FILL">
<path fill="#0079B8" stroke="none" d="
M 220 102.55
L 212.5 101.95 215.6 103.85
Q 222 107.9 224 116.55 224.75 119.75 224.55 121.35 224.3 122.85 222.8 125.95 221.3 128.85 219.6 130.35 217.95 131.8 213.5 134.15 208.3 136.8 200.8 138.7 193.25 140.6 192.2 139.55 191.1 138.5 191.55 126.85 192 115.25 193.3 110.85 195 105 195 104.65 195 104 191.1 106.05 187.25 107.95 179.35 110.05 171.4 112.15 157.1 115.05 145.05 117.45 140.05 119.4 135.15 121.25 131.8 124.75 124.85 132.1 127.8 139.65 129.15 142.95 132.25 144.6 135.6 146.35 140.1 145.65 141.85 145.35 143.7 144.7 145.7 143.95 146.8 143.25
L 149.4 141.55 145.5 141.05
Q 142.9 140.75 142.15 140.15 141.45 139.6 141.2 137.75 141.05 136.5 141.45 135.15 141.85 133.8 142.6 132.95 144.2 131.15 149.45 129.2 154.7 127.25 159.8 126.55
L 165 125.85 161 137.05
Q 156.95 148.45 156.5 149.05 156 149.85 150.2 152.05 142.6 154.9 134.35 159.25 126.05 163.6 121.1 167.35 118.45 169.35 116.8 170.25 115.1 171.2 115.4 170.55 117.05 166.05 121.05 148.4 125 130.65 125 127.55 125 124.55 123 123.25 121 121.9 117.3 122.45 108.25 123.65 101.85 128.85 99.2 131 99.3 132.45 99.45 134.05 103 134.05 105.9 134.05 107 135.95 108 137.95 107.95 146.75 107.9 155.8 106.8 168.15 105.6 181.6 105.7 184.65 105.75 187.45 107.1 188.35 108.1 188.95 109.95 188.4 111.8 187.8 115.9 185.65 120.9 183.05 131.95 179.05 142.9 175.05 145.1 175.05 146.8 175.05 140.9 180.7 134.95 186.3 129.3 190.05 126.35 192 121.3 194.95 116.2 197.85 112.1 199.95 102 205.2 102 205.75 102 206.3 103.3 205.75 115.15 200.55 123.8 197.8 132.55 195 146 192.15
L 158.4 189.55 161.1 181.05
Q 163.3 173.8 165.15 172.55 167.05 171.3 176.2 171.15
L 182.8 171.05 187.2 187.75 200.4 188.35
Q 209.05 188.8 218.7 190.05 228.65 191.3 235 192.75 236.05 193 234.15 191.55 232.25 190.1 228.6 187.95 225 185.75 220.6 182.5 216.3 179.35 213.8 177.05
L 207.8 171.55 217.1 171.25
Q 235.45 170.65 248.15 164.85 260.8 159.05 266.2 148.85 267.55 146.3 268.05 143.8 268.5 141.25 268.5 136.45 268.5 131.05 268 128.95 267.55 126.85 265.5 123.45 260.3 115.2 248.25 109.65 236.15 104.05 220 102.55
M 174.8 144.45
Q 171.35 145.35 171.15 144.25 170.95 143.2 172.9 135.05 174.4 129 174.95 129.5 175.45 130.05 176.5 138.65 176.95 142.25 176.7 143.15 176.45 144 174.8 144.45 Z"/>
</g>

<g id="Symbol_1_0_Layer0_3_MEMBER_0_FILL">
<path fill="#FEFEFE" stroke="none" d="
M 244 0.55
Q 244 0.3 243.15 0.2 242.25 0.05 241.1 0.25 239.3 0.5 231.4 5.5 223.5 10.5 220.5 13.35 218.85 14.85 222.15 12.85 225.45 10.85 230 7.55 236 3.15 237.25 2.35 238.5 1.6 236 3.85 231.95 7.55 222.05 13.7 212.1 19.85 203.5 24.05 189.2 31 176.15 34.65 163.15 38.3 144.5 40.55 134.1 41.85 128.65 43.25 123.1 44.65 119.6 46.95 117.5 48.4 116.6 48.4 115.7 48.4 112.6 46.95 100.85 41.6 86.4 51.55 83.25 53.75 81.7 54.3 80.1 54.85 78.1 54.45 74.25 53.7 67.45 55.9 60.65 58.1 54.5 62.05 47.2 67 46.4 68.25 45.95 69.05 46.1 69.05 46.2 69 47.3 68.15 49.5 66.4 48.9 67.35 48.3 68.3 45.8 70.65 44.45 71.85 44.05 72.05 43.65 72.25 44.4 71.35 45.2 70.4 45.5 69.7 45.8 69.05 45.4 69.05 44.5 69.05 38.75 74.8 33 80.55 33 81.45 33 81.85 33.6 81.55 34.2 81.3 35 80.55 37 78.75 37 79.25 37 79.65 34.3 82.15 33.25 83.15 32.75 83.4 32.2 83.65 32.5 83.05 33.1 82.1 32.95 82.05 32.85 82.05 31.7 82.95 30.2 84.15 30.05 85.2 29.85 86.3 31.3 85.45 31.9 85.05 31.9 85.3 31.85 85.55 31.1 86.35 29.95 87.8 29.4 88 28.8 88.2 29.6 86.85 30.4 85.75 29.1 86.55 27.4 87.5 24.7 94 22 100.4 22 103.35 22 110.2 27.1 114.55
L 29.5 116.55 25.5 111.65 28.7 114.05
Q 31.9 116.55 31.9 117.05 32.1 117.6 26 120.35 23.45 121.45 19.75 124.1 16.1 126.7 13.3 129.35 6.6 135.55 7.5 134.05 8.1 133.1 7.95 133.05 7.85 133.05 6.7 133.95 5.3 135.05 5.05 136.2 4.85 137.3 6.2 136.45 6.75 136.15 6.8 136.25 6.9 136.35 6.6 136.95 6.3 137.4 5.8 137.6 5.25 137.75 4.9 137.45 4.5 137.2 3.7 138.35 2.85 139.5 2.1 141.25 0.9 144.05 0.55 147.6 0.25 151.25 0.3 161.05 0.45 169.65 0.75 172.95 1.05 176.55 1.7 176.55 2.8 176.55 3.7 177.45 4.1 177.85 3.95 177.9 3.85 177.95 3.3 177.65 1.3 176.55 2.2 178.15 3.05 179.7 5.7 182.05 10.05 185.9 13.95 187.15 17.8 188.45 25 188.35 28.6 188.25 31.9 187.95 35.35 187.6 36.5 187.15 38.35 186.5 38 186.45 37.7 186.4 34.5 186.85 24.5 188.3 16.85 186.7 9.15 185.1 5.4 180.85 4.4 179.85 5.1 180.15 5.8 180.4 8 181.95 13.65 185.85 20.15 186.4 26.7 187 39.5 184.65 40.3 184.5 40.65 184.55 40.95 184.6 40.5 184.75 40.05 184.9 39.85 186.55 39.65 188.15 39.8 190.35
L 40.2 195.65 31.3 202.15
Q 24.45 207.15 15.25 215.55 6 224 6 225.35 6 225.7 6.55 225.6 7.05 225.5 7.8 224.95 8.95 224.15 9 224.15 9.05 224.15 8.2 225.05 7.65 225.65 6.95 226.1 6.25 226.55 5.8 226.55 5.35 226.55 4.9 226.95 4.45 227.35 4.2 227.95 3.75 229.35 5 228.55 6.3 227.85 5.6 228.95 5.3 229.4 4.85 229.6 4.35 229.75 4 229.55 1.45 228 0.35 239.75 -0.75 251.5 1.5 256.25 2.5 258.4 2.5 258.6 2.55 258.8 1.5 257.65 0 255.7 0 257.05 0 257.55 1.3 259.2 2.55 260.8 4.4 262.65
L 8.8 266.85 41.5 266.45 55.7 261.75
Q 86.05 251.7 111.6 249.35 137.1 246.95 175.9 250.55
L 180.5 250.95 176.5 250.15
Q 170 248.7 154.2 247.8 138.3 246.9 127.2 247.35 107.65 248.2 91.8 251.15 76.05 254.1 54.7 260.95 38.85 266.1 36.8 265.95 35.85 265.95 36.8 265.5 37.75 265.05 40 264.45 46.5 262.7 57.5 259.05 92.85 247.35 129.6 246.25 166.3 245.15 206 254.55 214.8 256.6 229 261 243.05 265.3 242.6 265.75 242.3 266.25 231.3 262.75 218.85 258.65 202.7 254.8 186.65 251 182.6 251.15 181.75 251.15 185.1 252 188.65 252.85 194 253.95 218.1 258.95 232.5 264.15 235 265.05 238.75 265.75 242.4 266.4 245.4 266.55
L 252.3 266.75 255.7 259.85
Q 258.45 254.15 258.8 253 259.1 251.9 257.8 252.65 257.25 252.95 257.2 252.85 257.1 252.75 257.4 252.15 257.7 251.7 258.15 251.5 258.65 251.35 259 251.55 259.4 251.8 259.95 251.4 260.55 250.95 260.9 250.15 261.95 248.2 261.95 247.6 261.9 247 260.8 247.65 260.25 247.95 260.2 247.85 260.1 247.75 260.4 247.15 260.7 246.7 261.15 246.5 261.65 246.35 262 246.55 262.4 246.8 262.95 246.4 263.55 245.95 263.9 245.15 264.95 243.2 264.95 242.6 264.9 242 263.8 242.65 263.2 242.95 263.05 242.9 262.9 242.85 263.3 242.45 264.2 241.55 265.2 241.55 265.65 241.55 266.1 241.15 266.6 240.75 266.8 240.15 267.25 238.8 265.9 239.55 265.3 239.9 265.1 239.9 264.9 239.85 265.3 239.45 266.2 238.55 267.2 238.55 267.65 238.55 268.1 238.15 268.6 237.75 268.8 237.15 269.25 235.8 267.9 236.55 267.3 236.9 267.1 236.9 266.9 236.85 267.3 236.45 268.2 235.55 269.2 235.55 269.65 235.55 270.1 235.15 270.6 234.75 270.8 234.15 271.25 232.8 269.9 233.55 269.3 233.9 269.1 233.9 268.9 233.85 269.3 233.45 270.2 232.55 271.2 232.55 271.65 232.55 272.1 232.15 272.6 231.75 272.8 231.15 273.25 229.8 271.9 230.55 271.3 230.9 271.1 230.9 270.9 230.85 271.3 230.45 272.2 229.55 273.2 229.55 273.65 229.55 274.1 229.15 274.6 228.75 274.8 228.15 275.25 226.8 273.9 227.55 273.3 227.9 273.1 227.9 272.9 227.85 273.3 227.45 274.2 226.55 274.8 226.55 275.8 226.55 276.9 225.6 278 224.7 278 223.85 278 223.4 277.55 223.5 277.05 223.55 276.3 224.15 275.1 225 275.05 224.95 275 224.95 275.8 224.05 276.35 223.45 277.05 223 277.75 222.55 278.2 222.55 278.65 222.55 279.1 222.15 279.6 221.75 279.8 221.15 280.05 220.55 279.85 220.35 279.65 220.15 279.1 220.45 277.8 221.3 278.05 220.7 278.3 220.05 279.7 218.95 280.85 218.05 280.95 218.05 281.1 218.1 280.5 219.05 279.9 220 280.05 220.05 280.15 220.05 281.3 219.15 282.65 218.1 282.95 216.95 283.3 215.8 282 216.55 280.8 217.3 281.1 216.7 281.35 216.1 282.7 214.95 283.85 214.05 283.95 214.05 284.1 214.1 283.5 215.05 283.1 215.75 283.5 215.65 283.85 215.55 284.8 214.65 286.75 212.95 286.95 211.85 287.2 210.7 285.3 212.15 284.2 212.95 284.25 212.8 284.25 212.65 285.4 211.25 287.35 209.1 287.8 209.55 288.35 210 289.65 208.9 291 207.75 291 206.85 291 206.05 290 206.55 288.55 207.45 289.15 206.6 289.7 205.75 291.7 203.95
L 294.5 201.55 292.5 204.05
Q 291.65 205.1 292.5 204.5 293.35 203.9 295.3 202.05 297.45 200.05 298.75 198.2 300 196.4 300 195.35 300 193.1 298.6 193.65 294.75 195.15 279.1 191.4 263.4 187.65 256 183.45 249.7 180 256.3 182.55 258 183.25 258 182.15 258 181.7 257.5 181.4 257 181.05 256.3 181.05 255 180.9 262.6 178.15 269.55 175.85 274.75 173 279.85 170.2 284.4 166.25
L 288.5 162.65 285.3 166.15
Q 282.15 169.55 276.45 172.95 270.75 176.35 264.3 178.65 261.45 179.7 260.45 180.3 259.45 180.9 260.9 180.65 265.55 179.85 272.95 175.8 280.35 171.7 285 167.45 287.45 165.15 289.25 163.2 291 161.25 291 160.85 291 160.4 290.5 160.5 290 160.6 289.3 161.15 288.1 162.1 288 162.05 287.9 162 288.9 160.85 289.4 160.1 290.1 159.75 290.7 159.4 291.1 159.65 291.85 160.1 294.4 155 297 149.85 296.9 148.05 296.9 147.45 296.55 147.95 296.15 148.45 295.7 149.75 294.3 153.2 293.7 153.65 293.05 154.35 294.6 149.95 295.25 148.1 295.75 144.6 296.25 141.1 296.3 137.55 296.3 132.7 296.5 131.8 296.65 130.95 297.2 133.05 297.5 134.55 297.6 137 297.7 139.6 297.5 141.55
L 297.1 146.55 298.1 142.55
Q 299.15 138.45 298 132.55 297 127.5 295.05 123.2 293.05 118.9 292 119.55 291.65 119.75 291.15 119.6 290.7 119.4 290.4 118.95 290.1 118.35 290.2 118.25 290.25 118.15 290.8 118.45 292.15 119.3 291.95 118.2 291.7 117.05 290.3 115.95 289.5 115.2 289.25 115.2 289 115.15 289.4 115.75 290.3 117.25 289.65 116.95 289 116.65 287.4 114.85 286.25 113.4 286.25 113.3 286.2 113.15 287.3 113.95 289 115.35 289 114.15 289 113.7 287.05 111.75 285.1 109.8 282.3 107.45 277.15 103.3 266.2 97.4 255.2 91.5 254.3 92.45 254 92.75 254.5 93.15 255 93.55 256 93.75 260.25 94.85 268.8 99.7 277.3 104.5 280.7 107.65
L 285.5 112.25 280.7 108.25
Q 276.65 104.85 268.9 100.65 261.1 96.35 256.3 94.95 251.95 93.7 252.1 93.15 252.1 92.55 257.1 89.35 261.9 86.3 261.5 87.15 260.75 88.3 261.75 88 262.7 87.7 264.2 86.35 265.95 84.75 266 83.8 266 82.8 264.3 84.15 263.1 85.1 263 85.05 262.9 85 263.9 83.85 264.4 83.1 265.1 82.75 265.7 82.4 266.1 82.65 267 83.2 269 78.8 271 74.45 270.9 72.05 270.9 69.5 269.6 74.35 269.1 76.3 268.3 78.15 267.55 79.9 267.1 80.35 266.55 80.9 266.7 80.05 266.85 79.2 267.6 77.55 268.3 75.75 268.8 72.85 269.3 69.75 269.3 67.05 269.45 60.8 270.1 63.05 270.65 64.85 270.75 64.9 270.85 64.9 270.9 63.25 271.05 58.95 266.1 53.8 261.15 48.6 254.4 46.05 249.05 44.1 240 43.05 230.9 41.95 224.6 42.55
L 217.7 43.25 219.8 39.75
Q 221.7 36.8 221.9 35.85 222.15 34.9 220.8 35.65 220.2 35.95 220.05 35.9 219.9 35.85 220.3 35.45 221.2 34.55 222.3 34.55 222.7 34.55 223.15 34.15 223.6 33.75 223.8 33.15 224.25 31.75 223 32.55 221.7 33.25 222.4 32.15 222.7 31.7 223.15 31.5 223.65 31.35 224 31.55 224.4 31.8 224.95 31.4 225.55 30.95 225.9 30.15 226.95 28.2 226.95 27.6 226.9 27 225.8 27.65 225.2 27.95 225.05 27.9 224.9 27.85 225.3 27.45 226.2 26.55 227.3 26.55 227.7 26.55 228.15 26.15 228.6 25.75 228.8 25.15 229.25 23.8 227.9 24.55 227.3 24.9 227.1 24.9 226.9 24.85 227.3 24.45 228.2 23.55 229.3 23.55 229.7 23.55 230.15 23.15 230.6 22.75 230.8 22.15 231.25 20.75 230 21.55 228.7 22.25 229.4 21.15 229.7 20.7 230.15 20.5 230.65 20.35 231 20.55 231.4 20.8 231.95 20.4 232.55 19.95 232.9 19.15 233.95 17.2 233.95 16.6 233.9 16 232.8 16.65 232.2 16.95 232.05 16.9 231.9 16.85 232.3 16.45 233.2 15.55 234.3 15.55 234.7 15.55 235.15 15.15 235.6 14.75 235.8 14.15 236.25 12.8 234.9 13.55 234.3 13.9 234.1 13.9 233.9 13.85 234.3 13.45 235.2 12.55 236.3 12.55 236.7 12.55 237.15 12.15 237.6 11.75 237.8 11.15 238.25 9.75 237 10.55 235.7 11.25 236.4 10.15 236.7 9.7 237.15 9.5 237.65 9.35 238 9.55 238.4 9.8 238.95 9.4 239.55 8.95 239.9 8.15 240.95 6.2 240.95 5.6 240.9 5 239.8 5.65 239.25 5.95 239.2 5.85 239.1 5.75 239.4 5.15 239.7 4.7 240.15 4.5 240.65 4.35 241 4.55 241.6 4.95 242.8 3.35 244 1.75 244 0.55
M 243.5 53.45
Q 253.05 56.3 256.9 62.25 260.75 68.2 257.9 75.75 255.95 81.05 248.45 86.25 240.9 91.4 232.2 93.45 227.55 94.6 228.15 95.15 228.7 95.7 235.9 97.05 252.1 100 265.2 108.35 278.25 116.75 282.9 127.15 284.95 131.5 285 138.45 285.05 145.35 283.1 149.55 278.95 158.65 267.4 165.55 255.8 172.5 239 175.85
L 229.6 177.75 237.1 182.75
Q 252 192.8 267.5 197.65 276.65 200.4 276.9 200.65 277.15 200.95 271.2 209.25 265.5 217.1 257.4 230 249.45 242.7 246 249.35 244.55 252.15 243.25 254.1 241.95 256.05 241.5 256.05 240.45 256.05 231.1 252.45 222.45 249.2 210.05 246.15 197.55 243.05 186.1 241.35 172.9 239.35 149.7 239.5 126.45 239.7 112 241.95 86 245.85 63.5 252.75
L 45 258.25
Q 39.4 259.85 31.15 260.5 22.8 261.1 19.8 260.15 16.1 258.95 13.45 256.5 10.75 254 9.4 250.55 7.75 246.1 9 241.6 10.2 237.05 15 230.25 19.05 224.5 23.15 220.65 27.25 216.8 38.8 208.05
L 50 199.55 50 190.55
Q 50 181.85 49.4 177.85
L 48.8 174.15 43.6 176.25
Q 38.8 178.15 31.6 178.75 24.35 179.35 20.7 178.15 8 173.95 7.95 160.05 7.85 146.1 20.5 133.45 30.6 123.2 45.4 119.45 49.55 118.4 50.75 117.7 52 117 52 115.65 52 114.15 51.05 113.9 50.1 113.65 45.6 113.85 39.45 114.25 36.7 112.15 33.9 110.1 33.3 104.85 32.5 97.8 38.75 88.5 44.95 79.2 54.8 72.75 61.55 68.35 66.4 66.55 71.25 64.8 77.1 64.55 81.4 64.4 83.5 63.75 85.6 63.05 89.2 60.65 93.3 57.9 98.35 55.95 103.3 54.05 106.4 54.05 107.35 54.05 109 54.6 110.75 55.15 112.2 55.95 114.9 57.3 115.65 57.3 116.4 57.3 117.6 55.95 120.1 53.2 126.15 51.25 132.25 49.35 144.3 47.55 167.3 44.2 186.5 37.9 205.7 31.6 217.4 23.55 221.15 21.05 221.6 21.25 221.75 21.4 219.95 23.85 218.05 26.4 215.4 29.55 210.3 35.9 204.8 43.65 199.15 51.5 198.5 53.35 198.15 54.25 199.25 54.25 200.4 54.25 205.2 53.35 213.25 51.7 225.65 51.75 237.95 51.8 243.5 53.45
M 263 51.95
Q 266.15 54.65 265.95 54.9 265.75 55.2 262.5 52.55 257.2 48.15 245.55 45.95 233.95 43.7 222.3 44.85 216.45 45.4 215.5 45.25 214.45 45.1 215.1 43.85 215.45 43.1 215.95 42.6 216.35 42.05 216.6 42.05 217.15 42.05 216.4 43.15 216.05 43.8 217.65 43.95 219.25 44.05 223.7 43.65 235.15 42.6 246.45 45 257.65 47.35 263 51.95
M 94.6 48.15
Q 100.05 46.05 104.1 46.05 107.2 46.05 110.9 47.3 114.6 48.5 115.4 49.85 115.65 50.25 114.7 49.95 113.8 49.7 112.3 48.95 108.95 47.25 105.15 47.15 101.4 47.05 96.3 48.55 94.3 49.15 91.5 50.5 88.75 51.85 86.9 53.05
L 82.5 56.15 86 53.05
Q 89.15 50.25 94.6 48.15
M 26.7 93.85
Q 25.25 96.55 24.7 98.05 24.1 99.55 24.1 98.25 24.05 97.2 25.5 94.15 27 91.05 27.6 91.05 27.95 91.05 26.7 93.85
M 68.1 57.65
Q 65.6 58.3 61.85 60 58.4 61.6 55.7 63.25 52.95 64.95 52.05 65.35 51.15 65.7 52.5 64.55 58.05 59.8 66.4 57.1 74.8 54.35 79.2 55.85 81.7 56.6 81.6 56.65 81.5 56.75 78.4 56.35 76.6 56.1 73.75 56.5 70.85 56.85 68.1 57.65
M 23.7 101.85
Q 24.05 104.05 23.7 105.85 23.45 106.55 23.35 105.85 23.25 105.2 23.3 103.55 23.3 101.9 23.45 101.4 23.55 100.85 23.7 101.85
M 41.7 188.35
Q 42.05 191.05 41.7 193.35 41.55 194.25 41.45 193.45 41.3 192.6 41.3 190.55 41.3 188.55 41.45 187.85 41.55 187.15 41.7 188.35
M 40.4 196.95
Q 41.55 196.45 41.45 196.6 41.35 196.8 40 197.75
L 29.2 205.75
Q 21.05 211.75 21.6 210.95 22.2 209.9 30.25 203.9 38.3 197.95 40.4 196.95
M 14 217.55
Q 19.5 212.05 19.9 212.05 20.5 212.05 15 217.55 9.5 223.05 9.1 223.05 8.5 223.05 14 217.55
M 9 265.25
Q 7.7 264.5 6.4 263.35 3.4 260.5 4.9 261.65 7.3 263.25 9.5 264.35 10.75 265 11.2 265.5 11.6 266 11 266.05 10.35 266.05 9 265.25 Z"/>
</g>

<g id="Symbol_1_0_Layer0_3_MEMBER_1_FILL">
<path fill="#FEFEFE" stroke="none" d="
M 225.4 197.65
Q 218.1 196.8 202.8 196.35 181.9 195.75 163.15 197.75 144.3 199.7 124.1 204.65 109.55 208.2 92.35 214.15 75.1 220.15 63.1 225.85 55.05 229.7 50.55 229.75 46 229.75 46 225.95 46 224.35 50.55 220.65 55.2 216.75 69 207.05 78.35 200.45 89.65 190.25 101 180.05 101 178.25 101 177.5 93.15 180.4 85.25 183.35 79.5 186.25 75.3 188.55 66.5 195.05 56.25 202.55 48.5 207.85 28 221.7 22.9 229.85 18.9 236.15 20.25 242.25 21.55 248.3 27.3 249.95 32.6 251.5 41.05 250.05 49.4 248.55 66.5 243.05 89.05 235.8 109.2 232.75 129.3 229.75 155.5 229.65 175.35 229.6 187.55 230.65 199.6 231.75 216.3 235.05 230.6 238.05 231.8 238.05 232.6 238.05 235 233.95 236.7 230.7 246 216.55
L 254.8 203.35 245.1 201.15
Q 232.85 198.45 225.4 197.65
M 158.2 218.55
L 158.1 221.15
Q 158.05 222.55 157.5 223.35 156.95 224.05 155.8 224.45 153.7 225 149.85 225.05 146 225.05 146 224.55 146 223.75 147.6 213.65 149.15 203.6 149.3 203.45 149.5 203.25 155.6 202.55 159.85 202.1 160.9 202.35 161.95 202.6 162.7 204.25
L 163.8 206.55 164.5 203.85
Q 164.95 202 166.05 201.55 167.1 201.1 171.6 200.85 175.45 200.7 176.7 200.95 178 201.15 178 202.05 178 202.7 177.1 206.1 176.1 209.7 174.8 213.75
L 171.7 224.05 166 224.05
Q 162.1 224.05 161.1 223.65 160.05 223.25 159.3 221.35
L 158.2 218.55
M 122 212.2
Q 123.6 209.05 124 208.65 124.3 208.35 126.4 207.7 128.5 207.05 131 206.55 135.5 205.65 136.45 205.75 137.4 205.9 138 207.45 139.05 210.35 141.05 217.2 143 224.05 143 224.95 143 226.2 138.1 226.1 133.15 225.95 132.7 224.65 132.15 223.3 129.85 223.8 127.5 224.3 125.7 226.15 124.95 226.95 123.65 227.5 122.35 228.05 121.2 228.05 118.8 228.05 116.2 228.65 114.6 229.1 114.95 227.75 115.3 226.4 118.5 219.45 120.3 215.5 122 212.2
M 106.8 212.55
L 110.1 211.85 107.6 216.95
Q 105 222.15 105 222.45 105 223 109.7 221.55 111.6 220.95 113.15 220.7 114.65 220.4 114.8 220.55 114.95 220.7 114.4 222.05 113.85 223.5 112.9 225.15 111.1 228.3 109.55 229.1 108.05 229.9 100.8 231.55 90.95 233.75 91.1 232.65 91.1 231.45 93.8 224.05 96.05 218.05 98.45 215.9 100.9 213.75 106.8 212.55
M 212.65 200.9
Q 222.75 201.8 227.1 203.15 233.25 205.1 234.8 208.5 236.35 211.9 232.9 215.65 230.4 218.3 227.55 219.65 224.6 221 218.5 222.35 212.8 223.55 201.4 224.2 189.8 224.85 182.2 224.35 178.1 224.15 177.1 223.75 176.1 223.4 176.5 222.25
L 183.7 200.55 194.1 200.25
Q 202.5 200.05 212.65 200.9 Z"/>
</g>

<g id="Symbol_1_0_Layer0_3_MEMBER_2_FILL">
<path fill="#FEFEFE" stroke="none" d="
M 204.75 212.85
Q 209 211.6 209 210.25 209 208.75 206.7 207.85 204.35 206.9 199.3 206.45 194.2 205.95 193.15 206.2 192.15 206.45 191.6 208.35 191.3 209.75 190.4 212.45 190.05 213.5 191 213.8 192 214.05 195.9 214.05 200.5 214.05 204.75 212.85 Z"/>
</g>

<g id="Symbol_1_0_Layer0_3_MEMBER_3_FILL">
<path fill="#FEFEFE" stroke="none" d="
M 163.6 171.55
L 173 170.95
Q 176.85 170.75 179.9 170.85 182.85 170.95 183.1 171.35 183.7 172.15 185.5 179.55
L 187.3 186.85 191.8 187.45
Q 193.75 187.7 196.75 187.85 199.95 188.05 202.4 188.05 206.35 188.05 215.15 189.1 223.9 190.1 232 191.55 234.3 192 233.9 191.55 233.45 191.1 229.3 188.75 223 185.2 215.5 179.35 208 173.45 208 172.05 208 171.75 211.35 171.35 214.7 170.95 219.3 170.75 237.3 169.8 249.05 164.1 260.75 158.4 265.7 148.25 268.4 142.8 268.55 136.45 268.7 130.15 266.2 125.35 264.1 121.3 263.25 120.85 262.45 120.4 262.8 123.55 263.6 130.45 254.05 137.15 244.45 143.85 228.6 147.55 223.6 148.75 205.8 151.05 188 153.2 178.3 155.15 160.4 158.55 134.8 166 109.15 173.45 107.3 175.85 106.1 177.25 106.05 182.6 105.95 187.85 107 188.55 107.45 188.85 109.8 187.95 112.1 187.1 115 185.55 121.05 182.45 131.95 178.7 142.95 174.9 144.8 175.25 145.75 175.4 145.3 176.35 144.85 177.3 142.6 179.85 138.8 184.05 133.6 187.75 128.45 191.4 118.5 197.05 107.55 203.25 109.5 202.55 110.6 202.15 118 199.35 124 197.05 135.5 194.15 146.9 191.25 152.5 190.55
L 158 189.85 163.6 171.55 Z"/>
</g>

<g id="Symbol_1_0_Layer0_3_MEMBER_4_FILL">
<path fill="#FEFEFE" stroke="none" d="
M 44.2 128.65
Q 49.55 126 47.85 126.15 46.1 126.25 40.5 128.95 35.8 131.1 30.8 135.85 25.8 140.6 23.6 144.95 22.05 147.95 21.4 152.95 20.8 157.9 21.6 160.75 22.1 162.55 22.4 161.85 22.6 161.2 23 157.05 23.3 154.15 24.15 151 24.95 147.7 26 145.65 28.25 141.2 33.55 136.25 38.9 131.25 44.2 128.65 Z"/>
</g>

<g id="Symbol_1_0_Layer0_3_MEMBER_5_FILL">
<path fill="#FEFEFE" stroke="none" d="
M 71.55 71.95
Q 72.75 71.05 72.2 71.05 70.4 71.05 64.15 74.55 57.85 78.1 54.8 80.85 51.7 83.65 48.35 88.3 45 92.95 45 94.45 45 94.9 46.05 93.7 47.05 92.45 48.5 90.35 51.35 86.15 56.45 81.95 61.5 77.75 68.1 74.05 70.3 72.9 71.55 71.95 Z"/>
</g>

<g id="Symbol_1_0_Layer0_3_MEMBER_6_FILL">
<path fill="#FEFEFE" stroke="none" d="
M 271.4 187.65
Q 263.55 185.1 263.2 185.45 262.9 185.8 269.15 187.9 275.25 189.95 279.5 190.95 283.45 191.85 288 191.85 290.8 191.85 290.4 191.65 289.95 191.45 285.8 190.95 279.35 190.05 271.4 187.65 Z"/>
</g>

<g id="Symbol_1_0_Layer0_3_MEMBER_7_FILL">
<path fill="#FEFEFE" stroke="none" d="
M 8.2 132.05
Q 7.95 132.65 9.6 131.45 11.3 130.25 13.8 127.95 16.25 125.55 19.55 123.2 22.8 120.85 24.9 119.95 26.9 119.05 28.45 118 29.9 117.1 30 116.75 30.1 114.8 19.5 122.25 8.95 129.65 8.2 132.05 Z"/>
</g>

<g id="Symbol_1_0_Layer0_3_MEMBER_8_FILL">
<path fill="#FEFEFE" stroke="none" d="
M 164.7 36.45
Q 170.9 35.2 181.15 32.1 191.25 29 190.8 28.55 190.65 28.4 187.9 29.15 185.1 29.9 181.5 31.05 172.65 33.85 164.35 35.5 155.9 37.2 143.9 38.55 124.3 40.9 118 46.15
L 115.5 48.25 119.1 46.15
Q 123.75 43.45 128.9 42.1 134 40.75 144.1 39.55 156.85 38.1 164.7 36.45 Z"/>
</g>

<g id="Symbol_1_0_Layer0_3_MEMBER_9_FILL">
<path fill="#FEFEFE" stroke="none" d="
M 204.65 22.55
Q 215.7 17.05 217.5 15.55 218.35 14.85 217.25 15.3 216.05 15.75 213.8 17.05 209.45 19.45 199.8 24.05 196.55 25.55 194.25 26.8 192.1 27.95 192.5 27.95 193.6 28.05 204.65 22.55 Z"/>
</g>
</defs>

<g transform="matrix( 1, 0, 0, 1, 8.35,8.35) ">
<g transform="matrix( 1, 0, 0, 1, 0,-0.15) ">
<use xlink:href="#Symbol_1_0_Layer0_0_MEMBER_0_FILL"/>
</g>

<g transform="matrix( 1, 0, 0, 1, 0,0) ">
<use xlink:href="#Symbol_1_0_Layer0_1_MEMBER_0_FILL"/>
</g>

<g transform="matrix( 1, 0, 0, 1, 0,0) ">
<use xlink:href="#Symbol_1_0_Layer0_1_MEMBER_1_FILL"/>
</g>

<g transform="matrix( 1, 0, 0, 1, 0,0) ">
<use xlink:href="#Symbol_1_0_Layer0_1_MEMBER_2_FILL"/>
</g>

<g transform="matrix( 1, 0, 0, 1, 0,0) ">
<use xlink:href="#Symbol_1_0_Layer0_1_MEMBER_3_FILL"/>
</g>

<g transform="matrix( 1, 0, 0, 1, 0,0) ">
<use xlink:href="#Symbol_1_0_Layer0_1_MEMBER_4_FILL"/>
</g>

<g transform="matrix( 1, 0, 0, 1, 0,0) ">
<use xlink:href="#Symbol_1_0_Layer0_1_MEMBER_5_FILL"/>
</g>

<g transform="matrix( 1, 0, 0, 1, 0,0) ">
<use xlink:href="#Symbol_1_0_Layer0_2_MEMBER_0_FILL"/>
</g>

<g transform="matrix( 1, 0, 0, 1, 0,0) ">
<use xlink:href="#Symbol_1_0_Layer0_2_MEMBER_1_FILL"/>
</g>

<g transform="matrix( 1, 0, 0, 1, 0,0) ">
<use xlink:href="#Symbol_1_0_Layer0_2_MEMBER_2_FILL"/>
</g>

<g transform="matrix( 1, 0, 0, 1, 0,0) ">
<use xlink:href="#Symbol_1_0_Layer0_3_MEMBER_0_FILL"/>
</g>

<g transform="matrix( 1, 0, 0, 1, 0,0) ">
<use xlink:href="#Symbol_1_0_Layer0_3_MEMBER_1_FILL"/>
</g>

<g transform="matrix( 1, 0, 0, 1, 0,0) ">
<use xlink:href="#Symbol_1_0_Layer0_3_MEMBER_2_FILL"/>
</g>

<g transform="matrix( 1, 0, 0, 1, 0,0) ">
<use xlink:href="#Symbol_1_0_Layer0_3_MEMBER_3_FILL"/>
</g>

<g transform="matrix( 1, 0, 0, 1, 0,0) ">
<use xlink:href="#Symbol_1_0_Layer0_3_MEMBER_4_FILL"/>
</g>

<g transform="matrix( 1, 0, 0, 1, 0,0) ">
<use xlink:href="#Symbol_1_0_Layer0_3_MEMBER_5_FILL"/>
</g>

<g transform="matrix( 1, 0, 0, 1, 0,0) ">
<use xlink:href="#Symbol_1_0_Layer0_3_MEMBER_6_FILL"/>
</g>

<g transform="matrix( 1, 0, 0, 1, 0,0) ">
<use xlink:href="#Symbol_1_0_Layer0_3_MEMBER_7_FILL"/>
</g>

<g transform="matrix( 1, 0, 0, 1, 0,0) ">
<use xlink:href="#Symbol_1_0_Layer0_3_MEMBER_8_FILL"/>
</g>

<g transform="matrix( 1, 0, 0, 1, 0,0) ">
<use xlink:href="#Symbol_1_0_Layer0_3_MEMBER_9_FILL"/>
</g>
</g>
</svg>
